<?xml version="1.0" standalone="no"?>
<!DOCTYPE svg PUBLIC "-//W3C//DTD SVG 20010904//EN"
 "http://www.w3.org/TR/2001/REC-SVG-20010904/DTD/svg10.dtd">
<svg version="1.0" xmlns="http://www.w3.org/2000/svg"
 width="359.000000pt" height="345.000000pt" viewBox="0 0 359.000000 345.000000"
 preserveAspectRatio="xMidYMid meet">

<g transform="translate(0.000000,345.000000) scale(0.100000,-0.100000)"
fill="#fff" stroke="none">
<path d="M1680 3099 c-123 -9 -220 -28 -340 -69 -161 -53 -346 -157 -464 -259
l-47 -41 -41 21 c-56 28 -126 49 -169 49 -19 0 -71 -11 -115 -24 -43 -12 -104
-26 -134 -30 -70 -9 -148 -43 -156 -68 -16 -53 34 -100 138 -128 26 -7 51 -18
56 -24 17 -23 31 -93 26 -128 -8 -49 0 -80 31 -110 l25 -26 -20 -46 c-29 -69
-67 -200 -85 -296 -22 -116 -22 -365 0 -495 85 -511 457 -945 954 -1116 148
-51 276 -70 461 -70 293 0 513 61 753 209 186 114 335 259 451 439 157 244
228 490 227 793 0 176 -19 297 -71 451 -26 77 -29 95 -17 104 87 65 97 84 95
170 -3 101 11 123 92 150 79 26 105 42 119 72 17 37 13 50 -22 77 -23 18 -59
30 -121 41 -49 8 -118 24 -153 35 -36 11 -82 20 -102 20 -74 0 -209 -57 -218
-91 -3 -10 -7 -19 -10 -19 -2 0 -36 27 -76 60 -314 264 -659 377 -1067 349z
m371 -53 c271 -44 544 -191 751 -403 88 -90 180 -211 172 -225 -3 -5 -43 30
-87 79 -126 136 -195 201 -272 258 -371 277 -849 347 -1287 190 -135 -49 -278
-132 -406 -237 -72 -59 -74 -60 -70 -32 2 21 19 42 63 77 208 170 453 273 725
307 95 11 299 5 411 -14z m-340 -195 c24 -25 29 -38 29 -78 0 -59 -18 -88 -65
-103 -75 -25 -135 23 -135 107 0 65 38 101 108 102 24 1 42 -7 63 -28z m228
-43 c14 -36 29 -69 32 -73 4 -3 9 24 12 60 5 74 7 78 32 69 15 -6 17 -16 11
-88 -9 -109 -12 -116 -46 -116 -26 0 -31 6 -58 78 l-30 77 -6 -45 c-3 -25 -7
-56 -8 -70 -2 -17 -9 -25 -23 -25 -22 0 -24 17 -11 138 l8 68 30 -3 c27 -3 33
-10 57 -70z m259 14 c9 -6 6 -23 -13 -72 -30 -77 -31 -96 -5 -110 29 -16 56 3
71 47 29 90 38 104 59 93 19 -10 18 -12 -6 -78 -14 -37 -33 -75 -41 -84 -20
-23 -81 -23 -111 -2 -41 29 -44 56 -14 139 26 74 34 83 60 67z m-776 -29 c10
-9 18 -19 18 -23 0 -12 -39 -19 -46 -9 -9 15 -44 10 -51 -7 -8 -22 16 -35 55
-28 101 19 111 -109 10 -131 -29 -7 -78 15 -78 34 0 16 30 21 50 8 15 -9 25
-9 38 -1 35 22 20 39 -41 44 -62 6 -77 17 -77 61 0 54 81 89 122 52z m-760
-24 c29 -7 77 -22 106 -35 42 -19 52 -27 52 -48 l0 -24 -79 34 c-48 20 -95 34
-120 34 -43 0 -197 -38 -291 -71 -95 -34 -90 -34 -90 -5 0 37 31 53 135 70 50
8 110 22 135 30 40 13 69 21 92 25 4 0 31 -4 60 -10z m2503 -16 c22 -8 80 -21
130 -29 104 -17 135 -33 135 -70 0 -21 -4 -25 -17 -21 -10 4 -52 18 -93 32
-98 34 -231 65 -278 65 -20 0 -72 -15 -114 -34 l-78 -34 0 25 c0 19 10 28 48
45 106 48 177 53 267 21z m-2412 -75 c31 -15 57 -32 57 -37 0 -6 -1 -11 -2
-11 -2 0 -28 -9 -58 -21 -31 -12 -50 -15 -42 -8 6 7 12 24 12 37 0 36 -58 56
-140 49 -151 -13 -217 -43 -207 -93 4 -21 1 -23 -22 -18 -14 4 -42 13 -61 21
l-35 15 50 23 c48 21 223 70 275 77 46 6 115 -8 173 -34z m2467 3 c58 -15 125
-37 150 -48 l45 -21 -35 -14 c-19 -9 -47 -18 -61 -22 -23 -5 -26 -3 -22 18 10
51 -47 76 -204 92 -50 4 -82 3 -103 -6 -34 -14 -49 -52 -29 -76 10 -12 2 -11
-40 5 -29 11 -56 23 -59 26 -10 9 11 24 73 49 81 34 153 33 285 -3z m-2532
-27 c22 -15 30 -44 12 -44 -5 0 -10 4 -10 8 0 19 -55 32 -130 32 -88 0 -127
-11 -151 -42 -9 -12 -19 -16 -22 -11 -4 6 -1 17 6 26 30 40 249 64 295 31z
m2517 1 c59 -15 90 -38 78 -58 -3 -5 -13 -1 -22 11 -24 31 -63 42 -151 42 -75
0 -130 -13 -130 -32 0 -4 -4 -8 -10 -8 -18 0 -10 29 12 44 29 21 144 21 223 1z
m-2565 -34 c18 -5 25 -14 25 -31 0 -23 -3 -24 -80 -26 -48 -1 -96 -8 -120 -18
-31 -12 -36 -13 -21 -1 27 21 121 38 175 31 39 -5 42 -4 21 5 -32 14 -152 4
-191 -16 -27 -15 -29 -14 -29 3 0 25 29 49 65 55 47 7 128 6 155 -2z m2591
-17 c11 -10 19 -26 19 -36 0 -17 -2 -18 -29 -3 -36 18 -158 30 -189 18 -16 -6
-2 -9 50 -9 87 0 152 -19 144 -41 -3 -8 -6 -23 -6 -33 0 -17 -3 -17 -47 -4
-25 8 -70 14 -100 14 -46 0 -53 2 -53 20 0 18 7 20 69 20 38 0 82 -5 97 -10
15 -6 29 -8 32 -6 12 13 -60 29 -133 30 -77 2 -80 3 -80 26 0 32 30 40 129 35
55 -3 85 -10 97 -21z m-2442 -23 c-8 -10 -33 -42 -57 -71 -23 -28 -46 -58 -50
-66 -5 -9 -15 -12 -25 -8 -15 5 -15 8 2 32 10 15 29 45 43 68 23 36 41 48 97
63 2 1 -3 -7 -10 -18z m2165 -11 c18 -6 28 -21 36 -52 7 -24 19 -52 28 -62 10
-10 12 -17 5 -15 -11 4 -103 124 -103 134 0 7 5 6 34 -5z m-2304 -40 c0 -18
-7 -20 -53 -20 -30 0 -75 -6 -100 -14 -46 -14 -47 -14 -47 8 0 30 38 44 128
45 66 1 72 -1 72 -19z m1300 -4 c157 -28 309 -100 412 -195 45 -42 50 -50 35
-57 -12 -4 -28 1 -45 15 -118 94 -222 149 -347 182 -112 30 -297 30 -410 0
-95 -25 -220 -85 -293 -141 -57 -43 -60 -44 -81 -31 -17 11 -2 27 93 92 177
124 415 174 636 135z m-1314 -45 c-15 -17 -20 -18 -43 -6 -29 15 -76 10 -112
-12 -18 -12 -22 -12 -19 -1 6 17 79 36 142 37 48 1 49 0 32 -18z m2523 6 c25
-7 46 -18 49 -25 3 -11 -1 -11 -19 1 -36 22 -83 27 -112 12 -23 -12 -28 -11
-43 6 -17 18 -16 19 32 18 27 0 69 -6 93 -12z m-2065 -153 c160 -75 319 -149
353 -165 48 -23 63 -36 72 -61 13 -37 13 -38 3 -38 -4 0 -13 14 -19 30 -15 41
-105 83 -188 88 l-60 4 -50 -51 c-30 -32 -58 -51 -72 -51 -37 0 -114 30 -173
68 -61 39 -250 191 -250 201 0 23 70 110 89 111 3 0 136 -61 295 -136z m1803
118 c20 -16 63 -80 63 -93 0 -10 -189 -162 -250 -201 -59 -38 -136 -68 -173
-68 -14 0 -42 19 -72 51 l-50 51 -60 -4 c-86 -6 -168 -45 -194 -95 -21 -39
-30 -23 -10 20 13 29 28 38 137 87 48 21 134 61 192 88 219 105 385 182 390
182 3 0 15 -8 27 -18z m-879 -21 c41 -12 99 -34 130 -50 63 -32 182 -116 182
-129 0 -5 -41 -28 -91 -52 -49 -24 -97 -52 -105 -64 -17 -25 -18 -61 -2 -121
10 -37 18 -47 44 -57 18 -6 37 -23 44 -36 28 -63 103 -164 141 -192 49 -35
108 -40 179 -15 23 8 45 15 48 15 3 0 2 -46 -1 -102 -12 -210 -78 -359 -227
-509 -106 -107 -192 -161 -325 -206 -72 -24 -95 -27 -230 -27 -130 -1 -160 2
-225 22 -88 28 -204 88 -264 137 -24 19 -53 35 -65 35 -15 0 -21 6 -21 21 0
11 -20 44 -45 72 -53 61 -128 207 -151 292 -17 64 -31 263 -21 289 6 14 16 12
77 -19 78 -39 149 -46 199 -20 39 20 89 79 136 163 29 51 48 73 70 81 25 9 33
20 43 56 16 60 15 96 -3 122 -8 11 -67 46 -132 77 l-117 57 30 24 c85 68 202
123 319 149 97 22 285 15 383 -13z m-1365 -17 c20 -10 37 -21 37 -25 0 -5 -13
-30 -28 -56 -15 -26 -34 -63 -41 -80 -7 -18 -16 -33 -19 -33 -11 0 -99 61
-120 83 -12 13 -25 37 -28 54 -5 26 -1 37 21 59 24 24 32 26 83 21 32 -2 74
-13 95 -23z m2544 0 c46 -46 19 -103 -79 -165 -27 -18 -50 -30 -52 -28 -9 13
-86 162 -86 168 0 7 49 31 90 45 8 2 34 5 58 5 33 1 49 -5 69 -25z m-2409
-156 c48 -40 111 -88 140 -107 60 -38 60 -30 8 -146 -20 -44 -36 -91 -36 -104
0 -14 -5 -21 -13 -18 -37 14 -248 160 -258 179 -18 34 -5 137 26 206 15 34 32
62 37 62 5 0 48 -33 96 -72z m2227 10 c18 -40 30 -86 33 -128 6 -83 0 -90
-159 -193 l-117 -75 -5 37 c-2 20 -21 71 -41 114 -20 43 -36 81 -36 85 0 4 28
27 63 49 34 23 96 71 137 107 41 36 80 65 86 65 6 1 24 -27 39 -61z m-2487
-120 c-106 -266 -113 -628 -17 -908 33 -96 106 -250 119 -250 10 0 157 84 361
206 l56 33 -34 72 c-19 39 -43 106 -54 148 -23 86 -35 245 -25 314 6 41 9 45
24 36 15 -9 18 -30 19 -137 0 -106 5 -142 27 -215 87 -293 300 -500 591 -578
112 -30 298 -30 410 0 364 97 608 405 620 779 3 103 12 131 36 117 9 -6 10
-37 6 -124 -7 -130 -37 -252 -88 -352 -17 -34 -29 -62 -27 -63 15 -12 405
-238 412 -239 16 -3 85 136 120 243 55 167 70 263 70 445 0 163 -12 251 -54
390 -41 134 -20 185 23 58 103 -305 101 -629 -8 -930 -169 -465 -579 -812
-1065 -899 -128 -23 -372 -23 -500 0 -561 100 -1006 537 -1120 1097 -56 274
-30 545 79 823 11 27 13 28 28 14 14 -15 14 -22 -9 -80z m962 -155 c-11 -17
-11 -17 -6 0 3 10 7 28 7 40 2 22 2 22 6 0 2 -12 -1 -30 -7 -40z m687 20 c-3
-10 -5 -4 -5 12 0 17 2 24 5 18 2 -7 2 -21 0 -30z m-1627 -353 c0 -5 -11 -10
-25 -10 -14 0 -25 5 -25 10 0 6 11 10 25 10 14 0 25 -4 25 -10z m60 0 c0 -5
-9 -10 -20 -10 -11 0 -20 5 -20 10 0 6 9 10 20 10 11 0 20 -4 20 -10z m65 0
c-3 -5 -15 -10 -26 -10 -10 0 -19 5 -19 10 0 6 12 10 26 10 14 0 23 -4 19 -10z
m65 0 c0 -5 -11 -10 -25 -10 -14 0 -25 5 -25 10 0 6 11 10 25 10 14 0 25 -4
25 -10z m60 0 c0 -5 -11 -10 -25 -10 -14 0 -25 5 -25 10 0 6 11 10 25 10 14 0
25 -4 25 -10z m60 0 c0 -5 -9 -10 -20 -10 -11 0 -20 5 -20 10 0 6 9 10 20 10
11 0 20 -4 20 -10z m1923 3 c-7 -2 -19 -2 -25 0 -7 3 -2 5 12 5 14 0 19 -2 13
-5z m60 0 c-7 -2 -21 -2 -30 0 -10 3 -4 5 12 5 17 0 24 -2 18 -5z m60 0 c-7
-2 -21 -2 -30 0 -10 3 -4 5 12 5 17 0 24 -2 18 -5z m60 0 c-7 -2 -21 -2 -30 0
-10 3 -4 5 12 5 17 0 24 -2 18 -5z m50 0 c-7 -2 -19 -2 -25 0 -7 3 -2 5 12 5
14 0 19 -2 13 -5z m60 0 c-7 -2 -19 -2 -25 0 -7 3 -2 5 12 5 14 0 19 -2 13 -5z"/>
<path d="M1618 2839 c-31 -18 -40 -45 -28 -88 15 -57 67 -71 96 -26 14 22 15
32 5 65 -6 22 -20 44 -31 50 -22 12 -21 12 -42 -1z"/>
<path d="M1950 2138 c-176 -79 -419 -194 -432 -206 -10 -8 -18 -25 -17 -36 0
-23 108 -239 108 -219 1 14 135 84 154 80 7 -1 11 6 9 18 -2 17 -1 17 8 5 9
-13 11 -13 20 0 5 8 10 21 10 29 0 11 4 10 13 -4 13 -16 20 -8 85 96 39 63 76
119 81 125 14 17 2 54 -18 54 -14 0 -14 2 -1 10 12 8 12 10 -5 10 -12 0 -16 3
-9 8 9 6 28 43 21 41 -1 0 -13 -5 -27 -11z"/>
<path d="M2010 2075 c-7 -9 -10 -18 -7 -21 3 -3 10 4 17 15 13 25 8 27 -10 6z"/>
<path d="M1598 1555 c-84 -118 -149 -228 -132 -221 10 4 21 1 26 -6 5 -9 8 -5
8 12 1 25 1 25 10 3 7 -17 18 -23 40 -23 20 0 30 -5 30 -15 0 -8 6 -15 14 -15
11 0 275 125 335 158 18 10 33 60 20 68 -5 3 -9 -2 -9 -11 0 -10 -5 -13 -12
-9 -8 5 -9 2 -5 -10 4 -9 3 -15 -2 -12 -12 8 -82 -30 -73 -39 4 -4 -4 -2 -17
5 -13 6 -21 8 -18 3 3 -5 -10 -15 -29 -22 -18 -7 -34 -17 -34 -23 0 -6 -9 -8
-20 -5 -13 3 -20 0 -20 -9 0 -8 -4 -14 -10 -14 -5 0 -10 22 -10 48 0 39 -38
162 -55 181 -2 2 -19 -18 -37 -44z"/>
<path d="M2614 1025 c-46 -46 -9 -95 47 -62 38 21 49 22 49 2 0 -9 -11 -20
-25 -25 -32 -12 -32 -30 0 -30 27 0 59 39 53 66 -6 32 -35 41 -69 22 -38 -22
-49 -23 -49 -3 0 9 11 20 25 25 29 11 31 16 9 24 -9 3 -25 -4 -40 -19z"/>
<path d="M895 1005 c-14 -13 -25 -35 -25 -48 0 -29 39 -67 69 -67 27 0 23 23
-5 28 -29 6 -37 18 -31 45 7 26 48 50 72 41 16 -6 18 -15 15 -53 -3 -33 24
-22 28 12 7 60 -76 89 -123 42z"/>
<path d="M2545 930 c-4 -7 6 -26 26 -46 18 -19 31 -34 28 -34 -2 0 -26 7 -54
15 -44 14 -51 14 -64 0 -14 -14 -11 -20 32 -61 32 -32 52 -44 64 -40 14 6 10
13 -23 47 l-39 40 44 -16 c95 -33 112 -11 44 57 -34 34 -53 46 -58 38z"/>
<path d="M1009 881 c-16 -16 -29 -39 -29 -51 0 -29 45 -72 72 -68 35 5 34 28
-1 28 -37 0 -49 20 -33 55 22 47 94 41 89 -7 -1 -12 4 -23 11 -25 25 -9 13 54
-14 76 -36 28 -60 26 -95 -8z"/>
<path d="M1166 811 c-4 -6 3 -15 14 -21 21 -11 20 -12 -15 -62 -28 -38 -34
-53 -24 -59 9 -5 24 8 47 41 30 43 36 47 53 37 28 -17 36 1 9 21 -58 42 -79
52 -84 43z"/>
<path d="M2366 789 c-49 -38 -19 -129 44 -129 70 0 100 81 46 127 -33 28 -56
29 -90 2z m78 -34 c29 -44 -2 -88 -45 -64 -11 6 -24 20 -28 32 -20 53 42 79
73 32z"/>
<path d="M1285 683 c-3 -26 -8 -60 -11 -74 -9 -48 23 -45 80 8 58 54 64 63 42
63 -8 0 -34 -19 -56 -42 l-41 -43 7 49 c10 74 10 79 -3 83 -7 3 -14 -13 -18
-44z"/>
<path d="M2263 724 c-8 -4 -2 -23 19 -62 38 -70 46 -79 53 -61 4 11 -50 132
-58 128 -1 0 -7 -3 -14 -5z"/>
<path d="M2161 672 c-52 -20 -66 -42 -25 -39 24 2 30 -4 45 -43 9 -25 24 -46
33 -48 19 -4 20 -3 2 39 -28 68 -28 77 -6 84 22 7 28 25 8 24 -7 0 -33 -8 -57
-17z"/>
<path d="M1505 637 c-24 -19 -14 -60 20 -75 14 -6 25 -18 25 -27 0 -22 -33
-18 -55 8 -19 21 -20 21 -23 3 -5 -24 23 -46 59 -46 54 0 63 52 14 84 -30 20
-32 36 -5 36 11 0 20 -7 20 -15 0 -8 7 -15 15 -15 22 0 18 27 -7 44 -27 19
-39 20 -63 3z"/>
<path d="M2056 598 c12 -72 11 -83 -13 -86 -25 -4 -37 15 -47 71 -4 23 -13 37
-21 37 -8 0 -15 -3 -15 -6 0 -17 24 -101 33 -111 14 -19 71 -16 90 5 15 16 16
26 6 75 -8 38 -17 57 -26 57 -12 0 -13 -9 -7 -42z"/>
<path d="M1651 584 c-27 -34 -27 -74 -1 -102 45 -48 120 -14 120 53 0 70 -77
102 -119 49z m78 -8 c17 -20 10 -77 -11 -90 -26 -16 -52 4 -56 41 -5 49 40 81
67 49z"/>
<path d="M1827 602 c-3 -4 -3 -37 0 -75 6 -73 5 -72 76 -61 49 9 48 24 -2 24
l-38 0 -7 60 c-6 54 -17 73 -29 52z"/>
</g>
</svg>
