<?xml version="1.0" standalone="no"?>
<!DOCTYPE svg PUBLIC "-//W3C//DTD SVG 20010904//EN"
 "http://www.w3.org/TR/2001/REC-SVG-20010904/DTD/svg10.dtd">
<svg version="1.0" xmlns="http://www.w3.org/2000/svg"
 width="1003.000000pt" height="585.000000pt" viewBox="0 0 1003.000000 585.000000"
 preserveAspectRatio="xMidYMid meet">

<g transform="translate(0.000000,585.000000) scale(0.100000,-0.100000)"
fill="#000000" stroke="none">
<path d="M80 2925 l0 -2895 4930 0 4930 0 0 2895 0 2895 -4930 0 -4930 0 0
-2895z m59 2868 c-13 -17 -12 -17 6 -2 11 8 35 16 52 18 28 2 32 0 27 -16 -5
-17 -5 -17 6 0 6 9 16 15 21 12 5 -4 7 -11 4 -16 -3 -5 1 -6 10 -2 13 4 14 8
4 14 -7 4 2164 8 4824 8 l4837 0 0 -2265 0 -2264 -4919 0 -4919 0 0 2265 1
2265 30 0 c27 0 28 -2 16 -17z m565 -4719 c9 -8 21 -24 26 -35 9 -16 7 -19
-10 -19 -11 0 -29 6 -40 12 -25 16 -54 1 -58 -30 -3 -18 1 -20 36 -15 35 5 41
2 61 -25 29 -42 28 -94 -4 -127 -44 -43 -111 -24 -135 40 -13 35 -13 121 1
148 33 63 88 86 123 51z m246 -29 c0 -42 2 -45 19 -35 30 16 59 12 81 -10 17
-17 20 -33 20 -100 l0 -80 -30 0 -30 0 0 70 c0 54 -4 72 -15 76 -30 12 -45
-15 -45 -82 0 -62 -1 -64 -25 -64 l-25 0 0 135 0 135 25 0 c23 0 25 -4 25 -45z
m320 -70 l0 -115 65 0 c58 0 65 -2 65 -20 0 -19 -7 -20 -95 -20 l-95 0 0 128
c0 71 3 132 7 135 3 4 17 7 30 7 23 0 23 -1 23 -115z m1168 51 c19 -36 42 -75
53 -87 19 -22 19 -22 19 64 0 86 0 87 25 87 l25 0 0 -135 0 -135 -30 0 c-26 0
-35 8 -63 53 -18 28 -39 65 -47 81 -15 28 -15 27 -18 -52 l-3 -82 -29 0 -30 0
0 135 0 135 33 0 c29 0 35 -5 65 -64z m412 19 c0 -42 11 -58 25 -35 11 18 61
11 81 -11 14 -16 20 -40 23 -100 l3 -79 -31 0 -30 0 -3 72 c-3 63 -6 73 -22
76 -30 6 -46 -26 -46 -90 0 -51 -2 -58 -20 -58 -19 0 -20 7 -20 135 0 128 1
135 20 135 17 0 20 -7 20 -45z m708 9 c12 -20 22 -40 22 -45 0 -11 28 -57 47
-77 11 -11 13 3 13 73 0 84 1 86 23 83 21 -3 22 -7 25 -135 l3 -133 -30 0
c-24 0 -36 8 -56 37 -14 21 -25 42 -25 48 0 6 -11 26 -25 45 l-25 34 0 -82 c0
-81 0 -82 -25 -82 l-25 0 0 135 0 135 28 0 c20 -1 33 -10 50 -36z m1313 -3
c36 -36 39 -43 39 -95 0 -73 -19 -108 -69 -131 -42 -18 -112 -16 -119 5 -2 5
-10 10 -17 10 -24 0 -48 69 -43 127 4 44 11 60 38 88 30 31 40 35 83 35 44 0
54 -4 88 -39z m779 29 c10 -5 25 -23 33 -40 14 -27 14 -30 -6 -36 -13 -4 -25
-1 -32 10 -21 28 -70 31 -95 6 -19 -19 -22 -30 -18 -78 3 -38 11 -59 23 -68
30 -22 63 -17 82 14 9 15 18 29 19 31 2 1 12 -3 22 -11 18 -12 19 -17 7 -45
-20 -46 -77 -62 -139 -39 -40 15 -47 23 -57 59 -6 23 -9 67 -6 97 5 45 12 60
37 83 32 29 93 37 130 17z m140 -35 c0 -42 11 -58 25 -35 10 16 57 12 77 -7
15 -13 18 -31 18 -100 0 -76 -2 -83 -20 -83 -18 0 -20 7 -20 59 0 75 -6 91
-36 91 -31 0 -44 -27 -44 -94 0 -53 -1 -56 -25 -56 l-25 0 0 135 0 135 25 0
c23 0 25 -4 25 -45z m1050 20 c0 -18 -5 -25 -20 -25 -15 0 -20 7 -20 25 0 18
5 25 20 25 15 0 20 -7 20 -25z m314 -1 c14 -15 26 -33 26 -40 0 -19 -56 -18
-64 1 -6 16 -43 20 -65 6 -20 -13 -7 -26 46 -46 65 -24 93 -51 93 -89 0 -39
-7 -49 -49 -71 -64 -32 -141 -4 -156 58 -6 24 -4 27 17 27 17 0 29 -8 36 -26
10 -20 18 -25 44 -22 71 7 57 65 -19 75 -66 9 -93 75 -52 127 17 22 29 26 68
26 39 0 53 -5 75 -26z m136 -24 c3 -28 8 -40 13 -32 10 15 51 16 78 2 17 -9
19 -22 19 -100 0 -89 0 -90 -25 -90 -23 0 -24 3 -27 72 -3 62 -6 73 -22 76
-27 6 -36 -15 -36 -85 l0 -63 -30 0 -30 0 0 136 0 135 28 -3 c24 -3 28 -8 32
-48z m870 25 c0 -21 -5 -25 -30 -25 -25 0 -30 4 -30 25 0 21 5 25 30 25 25 0
30 -4 30 -25z m664 3 c31 -152 40 -168 56 -107 31 120 33 124 76 124 l39 0 3
-132 3 -133 -31 0 -30 0 -1 98 c-1 83 -2 90 -9 50 -5 -26 -16 -70 -25 -98 -15
-45 -20 -50 -46 -50 -25 0 -29 4 -29 28 0 15 -9 56 -19 92 l-19 65 -1 -92 c-1
-92 -1 -93 -26 -93 l-25 0 0 135 0 135 40 0 c33 0 40 -4 44 -22z m466 -113 l0
-135 -30 0 -30 0 0 135 0 135 30 0 30 0 0 -135z m100 0 l0 -135 -30 0 -30 0 0
135 0 135 30 0 30 0 0 -135z m-8539 65 c14 0 19 -7 19 -25 0 -19 -5 -25 -20
-25 -19 0 -21 -5 -18 -57 3 -52 5 -58 26 -61 33 -5 24 -36 -11 -40 -46 -5 -57
12 -57 89 0 55 -3 69 -15 69 -8 0 -15 9 -15 20 0 11 7 23 15 26 8 4 15 11 15
17 0 6 8 19 18 30 17 19 17 19 20 -12 2 -23 8 -31 23 -31z m708 -9 c7 -5 15
-29 17 -55 2 -25 6 -67 8 -92 l4 -45 -32 2 c-17 2 -43 -1 -59 -5 -39 -12 -77
15 -77 54 0 23 7 35 33 50 17 11 42 20 55 20 13 0 22 6 22 15 0 9 -9 15 -25
15 -14 0 -25 -4 -25 -10 0 -5 -11 -10 -25 -10 -31 0 -32 16 -3 47 22 24 79 31
107 14z m116 -1 c4 -7 12 -7 25 0 28 15 61 12 82 -7 15 -13 18 -31 18 -100 0
-76 -2 -83 -20 -83 -17 0 -20 7 -20 53 0 76 -8 97 -36 97 -31 0 -44 -27 -44
-94 0 -53 -1 -56 -25 -56 -25 0 -25 0 -25 93 0 52 3 97 7 100 10 10 31 8 38
-3z m306 -19 c19 -20 29 -40 29 -60 l0 -31 -60 0 c-61 0 -75 -11 -48 -38 17
-17 48 -15 48 3 0 16 14 18 44 6 18 -7 18 -8 -5 -30 -65 -60 -148 -24 -149 65
0 38 24 100 42 107 34 14 71 6 99 -22z m760 -1 c10 -14 22 -40 25 -57 l7 -33
-67 0 c-36 0 -66 -3 -66 -6 0 -3 5 -14 10 -25 13 -23 37 -25 60 -4 17 15 50
11 50 -5 0 -16 -58 -50 -83 -50 -14 0 -38 11 -53 23 -38 33 -40 107 -5 155 20
29 28 33 64 30 29 -2 45 -10 58 -28z m329 13 c1 -17 1 -17 11 0 11 19 44 23
54 7 10 -16 -5 -52 -20 -47 -23 10 -35 -17 -35 -80 l0 -63 -30 0 -30 0 0 100
0 100 25 0 c17 0 25 -6 25 -17z m140 -63 c0 -65 3 -82 16 -87 34 -13 49 11 54
88 5 67 7 74 28 77 22 3 22 1 22 -97 0 -94 -1 -101 -20 -101 -11 0 -20 5 -20
11 0 5 -10 3 -22 -5 -31 -22 -58 -20 -85 6 -20 19 -23 31 -23 105 0 82 0 83
25 83 25 0 25 -1 25 -80z m656 63 c8 -11 13 -45 14 -81 0 -35 5 -72 11 -83 9
-18 7 -19 -28 -18 -21 0 -49 -2 -63 -6 -28 -7 -80 25 -80 49 0 29 42 66 81 72
23 4 38 12 36 18 -5 14 -57 21 -57 7 0 -13 -37 -15 -44 -2 -3 5 4 20 15 35 16
20 29 26 61 26 27 0 45 -6 54 -17z m242 -81 c3 -112 -9 -167 -41 -176 -66 -17
-137 5 -137 43 0 14 6 17 30 13 17 -2 30 -8 30 -13 0 -5 14 -9 30 -9 25 0 30
4 30 24 0 22 -3 24 -40 19 -33 -5 -44 -2 -60 17 -38 43 -34 116 7 162 12 13
30 17 82 15 l66 -2 3 -93z m174 81 c14 -12 18 -31 18 -80 0 -35 5 -73 11 -84
9 -18 7 -20 -28 -19 -21 0 -52 -2 -70 -6 -42 -8 -78 25 -68 64 10 39 22 50 66
57 44 8 55 35 14 35 -14 0 -25 -4 -25 -10 0 -5 -11 -10 -25 -10 -18 0 -25 5
-25 19 0 45 94 69 132 34z m118 0 c1 -17 1 -17 11 0 11 19 44 23 54 7 10 -16
-5 -52 -20 -47 -23 10 -35 -17 -35 -80 l0 -63 -30 0 -30 0 0 100 0 100 25 0
c17 0 25 -6 25 -17z m600 5 c0 -9 3 -9 12 0 14 14 53 16 77 3 25 -14 45 -82
37 -126 -13 -65 -72 -97 -110 -59 -15 14 -16 11 -16 -35 0 -48 -2 -51 -25 -51
l-25 0 0 140 0 140 25 0 c14 0 25 -5 25 -12z m213 0 c3 -10 7 -10 20 0 49 41
123 -27 114 -106 -8 -76 -63 -112 -115 -76 -22 15 -22 15 -22 -35 0 -44 -3
-51 -20 -51 -19 0 -20 7 -20 140 0 131 1 140 19 140 11 0 21 -6 24 -12z m878
-17 c19 -20 29 -40 29 -60 l0 -31 -60 0 c-61 0 -75 -11 -48 -38 17 -17 48 -15
48 3 0 16 14 18 44 6 17 -7 17 -8 1 -24 -29 -29 -56 -39 -91 -32 -58 10 -80
83 -49 158 16 38 26 45 68 46 19 1 39 -9 58 -28z m114 19 c4 -7 12 -7 25 0 28
15 61 12 82 -7 15 -13 18 -31 18 -100 0 -82 0 -83 -25 -83 -23 0 -25 3 -25 53
0 71 -9 97 -31 97 -26 0 -39 -31 -39 -94 0 -53 -1 -56 -25 -56 l-25 0 0 100
c0 92 1 100 19 100 11 0 23 -5 26 -10z m221 -1 c4 -8 9 -8 17 0 15 15 70 14
85 -1 8 -8 12 -45 12 -100 0 -81 -2 -88 -20 -88 -17 0 -20 7 -20 53 0 75 -8
97 -35 97 -27 0 -35 -22 -35 -97 0 -52 0 -53 -30 -53 l-30 0 0 93 c0 52 3 97
7 100 10 11 41 8 49 -4z m298 -5 c12 -11 16 -35 16 -84 0 -38 3 -76 6 -84 5
-13 -1 -16 -27 -15 -19 0 -46 -2 -61 -6 -52 -13 -91 30 -72 80 8 19 55 45 84
45 11 0 20 7 20 15 0 17 -45 21 -55 5 -9 -14 -45 -13 -45 2 0 6 10 22 22 35
26 27 88 32 112 7z m116 -84 c0 -93 -1 -100 -20 -100 -19 0 -20 7 -20 100 0
93 1 100 20 100 19 0 20 -7 20 -100z m742 88 c53 -43 64 -120 24 -163 -35 -38
-83 -42 -126 -13 -33 23 -35 27 -35 81 0 47 5 61 25 81 28 28 86 34 112 14z
m128 -5 c0 -15 1 -15 18 0 48 44 112 0 120 -82 4 -46 2 -53 -26 -81 -31 -31
-56 -37 -82 -20 -12 8 -16 2 -20 -33 -4 -34 -9 -43 -27 -45 -23 -3 -23 -3 -23
137 0 134 1 141 20 141 12 0 20 -7 20 -17z m220 1 c0 -14 2 -14 22 0 60 42
118 -6 118 -98 0 -34 -6 -50 -22 -66 -28 -26 -66 -36 -81 -21 -19 19 -26 12
-29 -31 -3 -39 -6 -43 -30 -46 l-28 -3 0 134 c0 73 3 137 7 140 12 13 43 7 43
-9z m230 -84 l0 -100 -30 0 -30 0 0 100 0 100 30 0 30 0 0 -100z m90 84 c0
-14 1 -14 16 0 8 9 28 16 44 16 45 0 60 -31 60 -122 0 -76 -1 -78 -25 -78 -23
0 -24 3 -27 73 -3 69 -4 72 -28 72 -24 0 -25 -3 -28 -72 l-3 -73 -29 0 -30 0
0 93 c0 52 3 97 7 100 13 13 43 7 43 -9z m340 -109 c0 -142 -2 -146 -84 -153
-56 -5 -86 12 -86 47 0 14 6 17 25 13 14 -2 28 -8 31 -13 3 -5 18 -9 35 -9 24
0 29 4 29 24 0 22 -3 24 -39 19 -59 -8 -86 21 -86 92 0 42 5 59 24 78 20 22
31 25 87 25 l64 0 0 -123z m574 109 c9 -8 16 -16 17 -17 0 -1 4 -39 7 -84 l7
-83 -27 0 c-16 0 -28 5 -28 12 0 6 -7 4 -18 -5 -38 -34 -102 -8 -102 42 0 35
24 57 73 66 20 4 37 11 37 16 0 15 -30 23 -43 10 -16 -16 -57 -14 -57 4 0 8 9
24 20 35 25 25 91 27 114 4z m-6964 -174 c0 -47 -33 -91 -53 -70 -9 8 -8 14 6
21 21 12 23 39 2 39 -15 0 -21 31 -8 43 3 4 17 7 30 7 20 0 23 -5 23 -40z
m2324 -3 c-1 -25 -9 -47 -22 -60 -27 -27 -40 -15 -21 20 11 20 11 27 2 30 -7
3 -13 16 -13 29 0 22 4 25 28 22 24 -3 27 -7 26 -41z m-456 -239 c50 -41 72
-91 72 -166 0 -56 -29 -142 -48 -142 -4 0 -18 -9 -31 -21 -44 -42 -148 -37
-202 8 -84 71 -92 214 -17 299 40 45 58 53 129 53 50 1 62 -3 97 -31z m235
-26 c20 -32 37 -61 37 -65 0 -3 17 -34 38 -69 l37 -63 3 128 3 127 29 0 30 0
0 -190 0 -190 -34 0 c-27 0 -39 7 -56 30 -22 30 -64 104 -97 168 -9 17 -20 32
-25 32 -4 0 -8 -52 -8 -115 l0 -115 -30 0 -30 0 0 190 0 190 33 0 c28 0 36 -7
70 -58z m534 13 c49 -49 51 -67 7 -75 -24 -5 -35 1 -61 29 -29 30 -37 33 -69
28 -20 -4 -47 -16 -60 -28 -21 -20 -24 -32 -24 -96 0 -41 5 -83 11 -95 13 -24
71 -50 96 -42 63 20 73 27 73 50 0 22 -4 24 -45 24 -45 0 -45 0 -45 35 l0 35
80 0 80 0 0 -78 0 -79 -55 -28 c-131 -66 -266 6 -282 150 -6 52 12 119 40 148
54 56 77 67 145 67 63 0 66 -1 109 -45z m383 0 c47 -46 64 -97 58 -170 -10
-112 -69 -170 -173 -170 -113 0 -170 63 -170 190 0 86 14 120 68 163 40 32 45
34 109 30 63 -3 70 -6 108 -43z m685 10 l0 -30 -97 -3 -98 -3 0 -39 0 -40 90
0 90 0 0 -35 0 -35 -90 0 -90 0 0 -50 0 -50 100 0 100 0 0 -30 0 -30 -135 0
-135 0 0 183 c0 101 3 187 7 191 4 3 63 5 132 4 l126 -3 0 -30z m-495 -130 l0
-155 90 0 90 0 0 -30 0 -30 -130 0 -130 0 0 185 0 185 40 0 40 0 0 -155z"/>
<path d="M139 5763 c-13 -16 -12 -17 4 -4 9 7 17 15 17 17 0 8 -8 3 -21 -13z"/>
<path d="M264 5728 c9 -14 13 -28 9 -33 -5 -4 -2 -5 5 -1 13 8 2 39 -19 52 -6
3 -4 -5 5 -18z"/>
<path d="M373 5735 c0 -6 6 -12 12 -12 6 0 12 6 12 12 0 6 -6 12 -12 12 -6 0
-12 -6 -12 -12z"/>
<path d="M213 5733 c4 -3 1 -13 -6 -22 -10 -14 -10 -14 4 -4 9 7 20 9 25 5 4
-4 2 1 -5 11 -7 9 -16 17 -19 17 -3 0 -2 -3 1 -7z"/>
<path d="M145 5710 c-3 -6 1 -7 9 -4 18 7 21 14 7 14 -6 0 -13 -4 -16 -10z"/>
<path d="M7035 5542 c-6 -4 -21 -22 -34 -40 -19 -28 -23 -43 -19 -91 6 -91 54
-139 103 -107 24 16 25 16 25 -8 0 -14 -5 -37 -12 -51 -14 -31 -54 -34 -63 -5
-9 28 -45 26 -45 -3 0 -30 45 -77 75 -77 33 0 83 53 92 98 13 61 7 186 -10
218 -33 62 -79 90 -112 66z m65 -81 c23 -43 1 -111 -36 -111 -26 0 -46 47 -39
90 6 36 10 40 36 40 18 0 32 -7 39 -19z"/>
<path d="M7309 5523 c-10 -26 -21 -48 -52 -106 -7 -12 -20 -34 -30 -48 -10
-15 -20 -50 -24 -78 l-6 -51 57 0 56 0 0 -35 c0 -32 2 -35 30 -35 28 0 30 3
30 35 0 24 5 35 15 35 10 0 15 10 15 30 0 20 -5 30 -15 30 -13 0 -15 21 -15
125 l0 125 -25 0 c-18 0 -28 -8 -36 -27z m1 -158 l0 -65 -30 0 c-36 0 -37 3
-5 59 14 23 25 49 25 57 0 8 2 14 5 14 3 0 5 -29 5 -65z"/>
<path d="M7585 5523 c-49 -53 -54 -123 -14 -190 25 -40 44 -47 81 -28 l31 15
-6 -36 c-3 -20 -11 -42 -18 -50 -17 -20 -47 -17 -54 6 -4 13 -15 20 -32 20
-22 0 -24 -3 -18 -27 3 -16 17 -39 30 -52 33 -34 81 -23 115 25 20 31 25 51
28 129 5 103 -5 146 -43 188 -33 35 -67 35 -100 0z m89 -81 c10 -36 -4 -79
-29 -88 -25 -10 -55 25 -55 62 0 53 9 65 43 62 26 -2 33 -9 41 -36z"/>
<path d="M7813 5515 l-35 -35 4 -134 c3 -129 4 -135 28 -155 37 -31 66 -36 96
-16 41 27 58 78 57 180 -1 99 -17 153 -55 179 -34 24 -57 19 -95 -19z m81 -51
c10 -26 7 -204 -4 -225 -16 -30 -37 -23 -50 17 -13 38 -10 190 4 212 10 17 43
15 50 -4z"/>
<path d="M8165 5534 c-17 -17 -48 -74 -43 -79 2 -1 13 -5 24 -9 16 -5 23 -2
27 14 7 28 53 28 62 0 7 -21 -17 -70 -34 -70 -5 0 -11 -11 -13 -24 -4 -21 -1
-25 21 -28 54 -6 54 -110 0 -116 -21 -2 -29 3 -38 26 -10 23 -17 28 -36 25
-20 -4 -22 -8 -15 -34 10 -33 56 -79 79 -79 84 1 134 116 79 185 -20 26 -20
28 -5 55 21 36 21 69 1 100 -35 52 -77 65 -109 34z"/>
<path d="M8733 5528 c-45 -50 -60 -123 -48 -233 5 -54 12 -73 37 -101 79 -90
160 20 145 198 -11 131 -77 198 -134 136z m80 -98 c8 -47 4 -162 -8 -192 -9
-22 -51 -24 -59 -2 -8 22 -8 229 1 238 4 4 19 6 32 4 22 -3 27 -10 34 -48z"/>
<path d="M8956 5528 c-59 -52 -60 -295 -1 -345 34 -30 56 -29 94 2 37 32 56
111 48 207 -6 73 -25 118 -59 142 -31 22 -52 20 -82 -6z m77 -98 c8 -45 3
-164 -9 -194 -10 -26 -43 -19 -51 12 -10 33 -9 192 0 216 4 11 15 16 29 14 18
-2 24 -12 31 -48z"/>
<path d="M9284 5514 c-40 -41 -44 -69 -11 -78 34 -9 37 -8 37 20 0 23 3 25 33
22 29 -3 32 -6 35 -42 3 -29 -2 -45 -20 -65 -53 -58 -97 -128 -112 -178 -7
-23 -6 -23 93 -23 l101 0 0 30 c0 29 -1 29 -62 32 l-63 3 40 45 c80 90 98 148
65 214 -32 67 -85 75 -136 20z"/>
<path d="M9538 5534 c-50 -27 -75 -179 -47 -289 13 -51 33 -72 77 -81 27 -6
37 -1 67 29 31 31 35 41 35 86 0 62 -13 93 -51 115 -26 15 -31 15 -59 1 -34
-18 -36 -13 -19 48 8 30 15 37 35 37 13 0 27 -7 30 -15 4 -8 17 -15 30 -15 34
0 31 34 -5 71 -33 32 -53 35 -93 13z m72 -213 c13 -48 -3 -101 -31 -101 -37 0
-55 93 -23 124 25 26 43 19 54 -23z"/>
<path d="M545 5533 c-60 -16 -99 -70 -89 -120 7 -34 66 -79 115 -88 20 -4 49
-17 65 -30 l29 -23 -21 -29 c-38 -51 -116 -41 -127 17 -6 25 -11 30 -37 30
-26 0 -30 -3 -30 -28 0 -83 131 -131 220 -81 43 24 56 62 44 125 -7 39 -50 74
-91 74 -13 0 -41 7 -63 16 -33 13 -40 21 -40 44 0 31 15 40 66 40 29 0 38 -6
56 -36 27 -46 61 -45 66 3 3 26 -3 36 -32 58 -35 27 -92 39 -131 28z"/>
<path d="M1082 5521 c-4 -11 -5 -95 -2 -188 5 -152 7 -168 23 -171 12 -2 20 4
24 16 5 20 5 20 36 1 45 -27 81 -24 118 9 27 24 33 37 37 85 6 70 -1 95 -33
130 -32 34 -89 37 -129 6 l-26 -20 0 63 c0 59 -11 88 -32 88 -5 0 -12 -9 -16
-19z m162 -160 c23 -25 24 -92 3 -125 -38 -58 -109 -19 -109 59 0 73 64 113
106 66z"/>
<path d="M1392 5532 c-9 -7 -12 -51 -10 -188 l3 -179 25 0 c23 0 25 4 27 50 7
130 21 165 69 165 33 0 44 -32 44 -131 0 -62 3 -81 15 -85 33 -13 45 15 45
103 0 69 -4 93 -22 124 -20 36 -25 39 -64 39 -25 0 -47 -6 -54 -15 -23 -28
-31 -15 -29 46 2 43 -2 64 -12 70 -17 11 -21 11 -37 1z"/>
<path d="M1971 5526 c-8 -9 -11 -68 -9 -187 3 -163 4 -174 22 -177 32 -7 46
25 46 107 1 85 13 111 53 111 36 0 47 -26 47 -114 0 -87 5 -106 30 -106 25 0
30 19 30 123 0 85 -2 93 -27 119 -31 33 -85 38 -115 11 -17 -15 -18 -14 -18
40 0 71 -30 108 -59 73z"/>
<path d="M8340 5510 l0 -30 60 0 60 0 -6 -27 c-4 -16 -15 -44 -25 -64 -22 -44
-49 -147 -49 -188 0 -28 3 -31 29 -31 l29 0 7 83 c5 66 14 97 46 164 59 122
59 123 -56 123 l-95 0 0 -30z"/>
<path d="M2847 5523 c-25 -25 11 -61 47 -47 17 7 19 14 10 38 -6 16 -45 22
-57 9z"/>
<path d="M1735 5424 c-48 -16 -65 -32 -65 -60 0 -31 39 -33 58 -4 9 15 23 20
57 20 41 0 45 -2 45 -24 0 -21 -8 -26 -68 -40 -86 -22 -89 -24 -97 -68 -14
-74 69 -113 142 -68 32 19 32 19 47 -2 8 -12 21 -18 29 -15 23 9 12 202 -12
237 -22 31 -85 42 -136 24z m99 -161 c-12 -53 -75 -83 -104 -48 -27 33 16 72
83 74 25 1 27 -2 21 -26z"/>
<path d="M2323 5428 c-37 -10 -77 -52 -70 -72 9 -23 44 -20 57 5 9 17 19 20
58 17 38 -2 48 -7 50 -23 2 -18 -7 -23 -65 -39 -93 -24 -113 -38 -113 -81 0
-67 86 -98 155 -55 l33 20 5 -20 c5 -19 41 -28 50 -12 2 4 1 53 -2 109 -6 88
-10 106 -30 127 -25 26 -79 37 -128 24z m97 -163 c0 -47 -59 -81 -98 -56 -21
13 -10 54 18 68 14 7 37 13 53 13 22 0 27 -4 27 -25z"/>
<path d="M2667 5432 c-15 -2 -33 -12 -40 -23 -15 -24 -23 -24 -30 2 -4 15 -12
20 -29 17 -22 -3 -23 -6 -26 -113 -3 -135 1 -155 32 -155 30 0 36 16 36 100 0
38 4 81 10 95 9 23 15 26 47 23 45 -4 51 -18 52 -136 1 -81 2 -83 24 -80 21 3
22 9 27 97 3 61 1 104 -7 122 -14 33 -57 56 -96 51z"/>
<path d="M6714 5394 c1 -27 7 -59 14 -71 14 -25 38 -30 44 -11 4 10 10 10 31
1 29 -13 35 -40 15 -63 -10 -11 -9 -11 6 0 18 14 19 13 13 -5 -7 -20 -7 -20 8
0 38 49 43 138 10 181 -12 15 -14 15 -9 2 3 -9 1 -25 -5 -35 -6 -10 -11 -13
-11 -6 0 11 -32 11 -82 1 -7 -2 -12 2 -13 7 0 6 -5 18 -11 29 -9 15 -11 9 -10
-30z"/>
<path d="M787 5423 c-4 -3 -7 -51 -7 -106 0 -84 3 -103 21 -128 25 -35 76 -39
119 -9 28 20 28 20 33 0 3 -12 14 -20 26 -20 20 0 21 5 21 136 0 135 0 135
-22 132 -21 -3 -23 -9 -29 -91 -7 -95 -23 -127 -65 -127 -33 0 -44 28 -44 114
0 41 -3 81 -6 90 -6 16 -35 22 -47 9z"/>
<path d="M2844 5417 c-2 -7 -3 -67 -2 -132 3 -109 5 -120 22 -123 35 -7 46 25
46 134 0 56 -3 109 -6 118 -7 19 -53 21 -60 3z"/>
<path d="M5941 5395 c-27 -32 -31 -43 -31 -96 0 -70 8 -89 50 -119 26 -19 35
-20 64 -10 39 12 68 67 44 81 -8 5 -16 1 -22 -9 -11 -22 -36 -42 -53 -42 -33
0 -57 115 -33 161 13 24 75 27 84 4 5 -13 36 -22 36 -11 0 11 -30 60 -42 67
-29 19 -66 9 -97 -26z"/>
<path d="M6280 5301 c0 -125 1 -131 20 -131 20 0 20 5 18 127 -3 112 -5 128
-20 131 -16 3 -18 -8 -18 -127z"/>
<path d="M6357 5423 c-4 -3 -7 -62 -7 -130 0 -116 1 -123 20 -123 19 0 20 7
20 130 0 102 -3 130 -13 130 -8 0 -17 -3 -20 -7z"/>
<path d="M6610 5404 c-15 -39 -12 -108 6 -130 11 -13 14 -14 11 -3 -3 9 1 16
9 16 7 0 10 -5 7 -11 -4 -6 1 -4 12 4 22 18 15 20 61 -13 l39 -28 -37 34 c-42
37 -79 111 -70 136 5 14 4 14 -13 1 -17 -14 -18 -13 -12 3 3 9 4 17 1 17 -2 0
-9 -12 -14 -26z"/>
<path d="M6152 5353 c-20 -8 -42 -59 -42 -99 0 -27 7 -46 27 -66 32 -33 42
-34 77 -7 31 24 33 39 6 39 -11 0 -20 -4 -20 -10 0 -16 -37 -11 -44 6 -11 30
-6 34 44 34 55 0 58 5 39 59 -15 42 -48 60 -87 44z m46 -45 c19 -19 14 -28
-18 -28 -32 0 -33 1 -24 24 7 19 25 21 42 4z"/>
<path d="M6440 5330 c0 -25 4 -31 18 -28 11 2 17 12 17 28 0 16 -6 26 -17 28
-14 3 -18 -3 -18 -28z"/>
<path d="M6778 5233 c7 -3 16 -2 19 1 4 3 -2 6 -13 5 -11 0 -14 -3 -6 -6z"/>
<path d="M6440 5190 c0 -13 7 -20 20 -20 13 0 20 7 20 20 0 13 -7 20 -20 20
-13 0 -20 -7 -20 -20z"/>
<path d="M5608 5103 c23 -2 61 -2 85 0 23 2 4 4 -43 4 -47 0 -66 -2 -42 -4z"/>
<path d="M5806 5065 c-8 -21 -8 -188 0 -209 14 -38 24 -10 24 69 0 56 4 85 11
85 6 0 29 -19 50 -42 l39 -43 37 43 c56 62 63 57 63 -44 0 -64 3 -85 13 -82
14 5 23 199 10 223 -6 11 -20 3 -63 -35 -30 -28 -57 -50 -61 -50 -3 0 -21 15
-41 33 -81 73 -75 70 -82 52z"/>
<path d="M7494 4985 c0 -49 1 -71 3 -48 2 23 2 64 0 90 -2 26 -3 8 -3 -42z"/>
<path d="M7780 5060 c0 -5 5 -10 10 -10 6 0 10 5 10 10 0 6 -4 10 -10 10 -5 0
-10 -4 -10 -10z"/>
<path d="M8314 5034 c-27 -28 -34 -44 -34 -75 0 -78 41 -119 119 -119 28 0 44
7 66 30 33 34 26 40 -12 10 -60 -47 -162 -1 -163 74 0 33 57 96 88 96 65 0
102 -46 82 -104 -16 -51 -45 -50 -36 2 4 20 9 44 12 53 3 12 -4 15 -38 13 -24
0 -46 -2 -50 -3 -15 -3 -29 -70 -19 -89 16 -30 115 -29 136 1 20 28 19 77 -2
107 -24 35 -33 40 -77 40 -31 0 -45 -7 -72 -36z m90 -46 c7 -11 6 -24 -2 -43
-23 -51 -69 -39 -56 15 11 49 37 61 58 28z"/>
<path d="M9040 5060 c0 -5 5 -10 10 -10 6 0 10 5 10 10 0 6 -4 10 -10 10 -5 0
-10 -4 -10 -10z"/>
<path d="M9114 4985 c0 -49 1 -71 3 -48 2 23 2 64 0 90 -2 26 -3 8 -3 -42z"/>
<path d="M6990 5040 c0 -11 -5 -20 -12 -20 -9 0 -9 -3 0 -12 7 -7 12 -33 12
-59 0 -28 5 -49 13 -52 9 -3 11 12 10 62 -1 36 -2 74 -3 84 0 24 -20 22 -20
-3z"/>
<path d="M7700 5040 c0 -11 -5 -20 -12 -20 -9 0 -9 -3 0 -12 7 -7 12 -33 12
-59 0 -34 4 -49 16 -53 9 -4 20 -3 23 0 3 4 0 9 -6 11 -8 3 -13 23 -13 53 0
29 5 50 13 53 10 4 10 6 0 6 -7 1 -13 10 -13 21 0 11 -4 20 -10 20 -5 0 -10
-9 -10 -20z"/>
<path d="M6153 5013 c-25 -10 -13 -44 22 -64 19 -12 35 -25 35 -30 0 -14 -48
-11 -53 4 -2 6 -8 9 -13 4 -4 -4 -1 -15 8 -23 22 -22 72 -6 76 24 3 18 -5 26
-32 37 -20 9 -36 22 -36 30 0 18 21 20 38 3 6 -6 15 -8 19 -4 16 16 -34 32
-64 19z"/>
<path d="M6280 5000 c-32 -32 -22 -82 20 -100 43 -18 70 4 70 55 0 23 -5 46
-12 53 -18 18 -56 14 -78 -8z m68 -43 c3 -45 2 -47 -23 -47 -37 0 -54 40 -31
75 27 41 50 29 54 -28z"/>
<path d="M6425 5011 c-10 -9 -5 -111 5 -111 6 0 10 23 10 50 0 36 4 52 15 56
26 10 45 -16 45 -62 0 -24 5 -44 10 -44 6 0 10 25 10 55 0 48 -3 55 -22 60
-25 5 -66 3 -73 -4z"/>
<path d="M6570 4966 c0 -46 4 -57 21 -67 14 -7 24 -8 31 -1 6 6 17 8 24 5 11
-4 14 8 14 56 0 75 -18 81 -22 9 -3 -46 -6 -53 -25 -56 -21 -3 -23 0 -23 47 0
27 -4 53 -10 56 -6 4 -10 -15 -10 -49z"/>
<path d="M6726 5004 c-25 -24 -21 -81 8 -99 19 -13 28 -14 50 -4 14 7 26 19
26 27 0 13 -3 13 -18 -1 -10 -10 -29 -17 -41 -17 -20 0 -22 4 -19 47 3 52 23
67 51 38 9 -9 18 -11 22 -6 6 11 -25 31 -49 31 -8 0 -22 -7 -30 -16z"/>
<path d="M6868 5013 c-19 -5 -34 -62 -24 -88 9 -24 53 -37 76 -22 11 6 20 19
20 27 -1 12 -3 12 -14 -2 -20 -27 -54 -23 -62 8 -12 49 36 103 52 59 4 -8 10
-12 16 -9 13 8 -11 34 -31 33 -9 -1 -24 -3 -33 -6z"/>
<path d="M7060 5014 c0 -24 40 -109 51 -109 12 0 53 104 45 113 -10 9 -25 -10
-31 -38 -9 -41 -22 -46 -30 -11 -6 27 -35 64 -35 45z"/>
<path d="M7205 5009 c-14 -22 5 -57 35 -64 16 -4 30 -13 30 -21 0 -17 -41 -19
-58 -2 -9 9 -12 9 -12 0 0 -21 44 -36 69 -23 35 19 27 50 -19 68 -22 9 -40 20
-40 25 0 15 31 21 43 9 6 -6 18 -11 27 -11 12 1 11 4 -4 15 -23 17 -62 20 -71
4z"/>
<path d="M7348 5009 c-13 -7 -18 -23 -18 -53 0 -39 3 -45 29 -56 44 -18 80 12
81 68 0 18 -37 52 -57 52 -10 0 -26 -5 -35 -11z m62 -28 c15 -38 -1 -74 -33
-69 -17 2 -23 11 -25 36 -6 60 36 84 58 33z"/>
<path d="M7558 5014 c-5 -4 -8 -27 -8 -50 0 -48 23 -79 49 -68 9 4 24 6 34 6
14 -1 17 8 17 59 0 33 -4 59 -10 59 -5 0 -10 -18 -10 -39 0 -52 -8 -71 -31
-71 -19 0 -26 18 -31 78 -2 19 -6 30 -10 26z"/>
<path d="M7780 4960 c0 -33 4 -60 10 -60 6 0 10 27 10 60 0 33 -4 60 -10 60
-6 0 -10 -27 -10 -60z"/>
<path d="M7867 5005 c-23 -23 -22 -78 2 -99 47 -43 118 36 83 91 -14 22 -67
27 -85 8z m57 -11 c31 -30 14 -84 -26 -84 -21 0 -33 38 -24 75 7 29 27 32 50
9z"/>
<path d="M8000 4959 c0 -33 4 -59 10 -59 6 0 10 19 10 43 0 43 13 67 37 67 9
0 13 -17 13 -55 0 -30 5 -55 10 -55 11 0 14 109 3 111 -5 1 -25 3 -45 4 l-38
2 0 -58z"/>
<path d="M8157 5014 c-4 -4 -7 -18 -7 -31 0 -17 9 -27 36 -38 19 -8 33 -19 29
-25 -8 -13 -55 -13 -55 0 0 6 -5 10 -12 10 -7 0 -3 -10 9 -22 19 -19 25 -20
53 -8 43 18 38 51 -10 66 -19 6 -36 16 -38 23 -6 17 26 25 43 11 14 -12 35 -7
23 5 -9 9 -63 16 -71 9z"/>
<path d="M8540 5000 c-12 -23 -13 -70 -1 -89 6 -9 20 -12 40 -9 34 5 42 -11
16 -32 -12 -10 -21 -10 -41 -2 -23 11 -24 10 -14 -8 13 -24 52 -26 74 -4 12
11 16 35 16 88 l0 72 -40 1 c-30 2 -42 -3 -50 -17z m58 -2 c27 -27 11 -88 -23
-88 -24 0 -35 17 -35 54 0 24 17 46 35 46 6 0 16 -5 23 -12z"/>
<path d="M8680 4958 c0 -32 4 -58 10 -58 6 0 10 20 10 44 0 49 24 82 41 55 5
-8 9 -33 9 -56 0 -24 5 -43 10 -43 6 0 10 20 10 44 0 54 24 81 46 51 8 -10 15
-37 15 -59 2 -33 3 -35 6 -12 3 16 2 43 -1 61 l-6 32 -75 -1 -75 -1 0 -57z"/>
<path d="M8904 5005 c-15 -11 -16 -14 -3 -15 8 0 20 5 25 10 13 13 44 2 44
-15 0 -7 -15 -16 -34 -19 -43 -8 -59 -42 -30 -63 10 -7 25 -10 34 -7 8 4 24 6
35 6 18 -1 20 4 16 51 -2 29 -8 55 -15 59 -18 12 -51 9 -72 -7z m66 -59 c0
-20 -16 -36 -36 -36 -25 0 -34 24 -11 33 15 7 47 8 47 3z"/>
<path d="M9040 4960 c0 -33 4 -60 10 -60 6 0 10 27 10 60 0 33 -4 60 -10 60
-6 0 -10 -27 -10 -60z"/>
<path d="M9278 5009 c-13 -7 -18 -23 -18 -53 0 -36 4 -45 26 -55 22 -10 31 -9
51 4 13 9 21 20 17 26 -3 6 -11 4 -18 -6 -21 -29 -51 -15 -54 26 -4 48 20 70
48 44 17 -15 20 -16 20 -3 0 26 -41 36 -72 17z"/>
<path d="M9413 5012 c-6 -4 -14 -19 -18 -34 -15 -59 24 -99 76 -78 26 11 29
17 29 56 0 33 -5 46 -19 54 -23 12 -51 13 -68 2z m56 -16 c7 -8 11 -30 9 -48
-2 -28 -7 -34 -30 -36 -39 -5 -58 36 -34 73 19 28 38 32 55 11z"/>
<path d="M9540 4958 c0 -32 4 -58 10 -58 6 0 10 17 10 38 0 42 21 79 38 68 7
-4 12 -29 12 -57 0 -62 18 -65 22 -3 2 31 9 51 20 58 24 14 32 3 39 -57 l7
-52 -2 60 -1 60 -77 0 -78 1 0 -58z"/>
<path d="M670 3920 l0 -1090 945 0 c913 0 945 1 945 19 0 17 29 18 748 23 411
3 1578 3 2595 0 l1847 -5 0 351 0 352 -2595 0 -2595 0 0 720 0 720 -945 0
-945 0 0 -1090z m1820 0 l0 -1010 -875 0 -875 0 0 1010 0 1010 875 0 875 0 0
-1010z m680 -471 c55 -28 101 -117 74 -143 -17 -17 -54 -9 -54 11 0 25 -38 70
-65 77 -37 9 -79 -17 -99 -62 -14 -31 -17 -59 -14 -122 3 -75 6 -84 31 -106
55 -47 132 -23 146 46 5 25 13 36 28 38 50 7 48 -66 -3 -135 -28 -36 -76 -49
-154 -38 -46 6 -52 10 -79 55 -106 172 -10 425 149 392 14 -2 32 -8 40 -13z
m380 -6 c37 -21 61 -59 67 -102 4 -30 1 -39 -12 -45 -23 -8 -32 -1 -55 43 -26
51 -67 68 -109 47 -46 -24 -55 -50 -55 -160 0 -95 1 -99 28 -122 53 -46 119
-24 150 50 20 49 50 47 54 -4 2 -25 -6 -48 -27 -82 -26 -41 -35 -47 -76 -54
-96 -14 -146 10 -185 90 -48 100 -31 237 38 309 55 57 118 67 182 30z m648
-115 c19 -62 40 -137 46 -166 l12 -53 42 143 c23 79 42 153 42 165 0 27 26 54
46 46 35 -13 34 -38 -6 -161 -22 -67 -40 -128 -40 -137 0 -9 -9 -45 -21 -80
-17 -53 -25 -66 -46 -72 -15 -3 -33 -1 -42 4 -16 10 -79 181 -80 218 -1 11
-12 55 -26 98 -30 92 -30 100 -9 122 26 26 42 2 82 -127z m595 116 c15 -8 27
-21 27 -29 0 -8 5 -15 11 -15 6 0 9 -17 7 -42 -4 -57 -30 -58 -61 -3 -19 34
-28 40 -59 43 -41 3 -68 -17 -68 -52 0 -24 17 -46 37 -46 7 0 37 -9 66 -20 74
-28 112 -80 105 -144 -3 -24 -15 -60 -27 -80 -18 -29 -30 -36 -66 -42 -73 -10
-131 3 -154 35 -36 51 -43 81 -26 108 21 32 30 27 57 -27 28 -54 65 -72 105
-50 64 37 56 96 -17 119 -85 26 -95 32 -123 69 -24 31 -28 44 -24 80 11 98
113 145 210 96z m367 -3 c23 -12 43 -35 60 -67 22 -42 25 -62 25 -144 0 -86
-3 -99 -28 -142 -41 -68 -50 -73 -137 -73 -87 0 -103 8 -146 77 -21 33 -24 50
-24 138 0 117 12 156 63 194 64 49 116 54 187 17z m230 -178 l0 -173 78 0 c83
0 102 -9 102 -47 0 -29 -38 -36 -155 -32 -62 3 -88 8 -95 19 -5 8 -10 102 -10
208 0 181 1 193 21 213 20 20 22 20 40 3 17 -16 19 -32 19 -191z m271 169 c5
-14 9 -86 9 -161 -2 -177 3 -191 71 -191 67 0 74 18 77 206 3 146 6 165 22
174 33 18 45 -14 48 -136 5 -150 -11 -251 -44 -284 -22 -22 -32 -25 -103 -25
-133 0 -151 32 -151 271 0 143 2 164 17 172 23 13 43 4 54 -26z m689 -199 c0
-189 -2 -214 -16 -220 -9 -3 -24 -2 -33 4 -14 9 -16 39 -19 211 -2 193 -2 202
18 222 17 17 24 19 36 9 11 -9 14 -52 14 -226z m322 211 c88 -45 122 -205 72
-336 -28 -72 -50 -88 -130 -94 -119 -9 -163 30 -186 164 -12 71 -11 75 17 192
11 49 112 105 170 93 17 -3 42 -12 57 -19z m246 -19 c2 -10 26 -56 53 -103 27
-47 49 -89 49 -93 0 -5 9 -23 20 -41 l20 -33 0 135 c0 106 3 140 16 158 41 59
54 5 54 -222 0 -210 -4 -225 -54 -212 -19 5 -36 27 -70 94 -24 49 -54 104 -65
123 -12 19 -21 42 -21 52 0 9 -4 17 -10 17 -5 0 -11 -59 -12 -142 l-3 -143
-30 0 -30 0 -3 210 c-3 205 -2 210 19 228 19 15 25 16 43 4 12 -8 23 -22 24
-32z m453 35 c63 -18 111 -88 89 -130 -16 -30 -54 -23 -58 10 -8 58 -79 82
-117 40 -31 -34 -11 -70 49 -87 59 -18 119 -56 136 -88 8 -15 11 -43 8 -75 -4
-41 -12 -58 -37 -83 -30 -30 -36 -32 -105 -32 -65 0 -78 3 -100 24 -32 30 -46
105 -24 128 13 13 17 13 32 -2 9 -9 16 -22 16 -28 0 -26 47 -67 76 -67 47 1
66 22 62 71 -3 39 -6 44 -38 55 -19 7 -47 15 -63 19 -15 3 -41 18 -59 33 -27
25 -31 34 -31 83 0 70 15 96 66 120 49 22 51 22 98 9z m-3307 -16 c20 -19 20
-23 -1 -46 -11 -12 -30 -18 -60 -18 l-43 0 0 -179 c0 -116 -4 -182 -11 -186
-5 -4 -21 -4 -35 -1 l-24 6 0 180 0 180 -41 0 c-70 0 -99 29 -63 64 12 13 40
16 139 16 99 0 127 -3 139 -16z m2160 0 c9 -8 16 -22 16 -29 0 -14 -32 -37
-47 -34 -4 1 -23 1 -40 0 l-33 -1 0 -180 0 -180 -25 -6 c-14 -4 -29 -3 -33 1
-4 3 -8 87 -10 186 l-3 179 -37 0 c-47 0 -84 24 -75 48 11 29 24 32 150 32 97
0 125 -3 137 -16z"/>
<path d="M1965 4735 c-44 -18 -87 -37 -96 -42 -9 -4 -42 -21 -75 -36 -32 -16
-104 -50 -159 -77 -55 -26 -131 -63 -170 -80 -38 -18 -79 -42 -89 -53 -22 -22
-26 -81 -7 -100 6 -6 11 -17 11 -25 0 -7 23 -54 50 -104 28 -50 50 -98 50
-107 0 -9 9 -29 20 -46 12 -18 20 -24 20 -14 0 8 -5 20 -12 27 -9 9 -9 12 2
12 7 0 10 3 7 7 -8 7 79 53 101 53 12 0 51 19 62 30 13 13 52 30 70 30 12 0
20 7 20 16 0 9 6 14 12 12 19 -7 36 14 30 37 -3 11 -1 17 3 12 5 -4 9 -15 10
-25 1 -9 9 -30 19 -47 16 -27 16 -19 0 20 -3 8 -1 15 5 15 6 0 11 6 11 14 0 8
16 35 36 61 19 26 41 59 47 73 10 24 39 66 92 137 8 10 15 23 15 29 0 5 11 24
25 42 16 21 20 31 11 28 -8 -3 -25 1 -38 10 -12 9 -19 16 -14 16 5 0 3 6 -3
14 -6 8 -10 20 -9 27 2 8 -5 13 -14 13 -28 -3 -21 13 12 28 17 7 30 16 30 20
0 5 -1 7 -2 7 -2 -1 -39 -16 -83 -34z m89 -111 c3 -8 2 -12 -4 -9 -6 3 -10 10
-10 16 0 14 7 11 14 -7z"/>
<path d="M1506 3933 c-14 -21 -26 -41 -26 -46 0 -4 -5 -13 -10 -20 -30 -35
-90 -122 -90 -130 0 -6 -17 -33 -39 -61 -21 -28 -44 -62 -51 -76 -12 -22 -12
-24 3 -12 10 8 31 11 59 8 24 -3 54 -5 67 -5 16 -1 21 -5 17 -16 -3 -8 -1 -15
4 -15 6 0 10 5 10 10 0 6 8 10 18 10 14 0 15 -2 2 -10 -8 -5 -11 -12 -7 -16 3
-4 13 -1 22 6 20 16 19 1 -1 -28 -21 -30 -12 -28 72 18 40 22 80 40 87 40 8 0
51 20 95 45 44 25 85 45 92 45 18 0 146 69 164 89 9 10 19 33 22 52 l7 34 -21
-22 c-12 -12 -30 -24 -42 -28 -11 -3 -20 -10 -20 -14 0 -5 -18 -11 -40 -15
-27 -4 -39 -10 -34 -18 5 -7 2 -9 -9 -5 -9 3 -17 2 -19 -2 -5 -12 -120 -71
-139 -71 -10 0 -24 -6 -31 -13 -28 -28 -33 -21 -38 54 -4 52 -14 92 -32 130
-14 30 -29 67 -34 83 -13 42 -29 42 -58 -1z"/>
<path d="M1435 3500 c-3 -6 1 -7 9 -4 18 7 21 14 7 14 -6 0 -13 -4 -16 -10z"/>
<path d="M1043 3224 c-41 -24 -43 -27 -43 -73 0 -59 13 -72 100 -99 103 -31
86 -62 -22 -40 -66 14 -78 7 -78 -43 0 -35 13 -39 121 -39 83 0 91 2 119 28
19 16 33 40 36 62 9 52 -17 77 -95 96 -80 18 -101 32 -75 51 18 13 75 9 106
-8 14 -8 20 -3 33 27 8 20 15 38 15 39 0 10 -72 25 -119 25 -42 0 -67 -7 -98
-26z"/>
<path d="M1400 3236 c-14 -8 -34 -19 -46 -25 -49 -22 -71 -142 -36 -199 9 -16
31 -41 48 -56 29 -23 40 -26 113 -26 l82 0 43 44 c84 84 74 172 -30 256 -26
21 -142 25 -174 6z m125 -91 c25 -24 32 -65 19 -100 -9 -23 -50 -37 -89 -29
-59 11 -72 88 -23 134 29 27 64 25 93 -5z"/>
<path d="M1700 3090 l0 -160 50 0 50 0 0 71 c0 83 3 83 77 -13 42 -55 46 -58
89 -58 l44 0 0 161 0 160 -47 -3 -48 -3 -3 -67 c-2 -38 -7 -68 -12 -68 -6 0
-21 18 -34 39 -42 65 -83 98 -127 99 l-39 2 0 -160z"/>
<path d="M2067 3244 c-4 -4 -7 -52 -7 -106 0 -162 36 -208 160 -208 85 0 104
8 130 60 16 32 20 59 20 149 l0 109 -50 0 -50 1 0 -104 c0 -109 -10 -135 -49
-135 -42 0 -50 20 -53 130 l-3 105 -45 3 c-25 2 -49 0 -53 -4z"/>
<path d="M5042 3390 c-54 -22 -80 -165 -46 -250 18 -45 39 -60 81 -60 64 0
103 59 103 155 0 67 -18 114 -55 143 -30 24 -47 26 -83 12z"/>
<path d="M6540 3370 c-84 -90 -49 -291 50 -290 67 1 102 52 104 149 1 78 -23
135 -65 156 -41 22 -58 19 -89 -15z"/>
<path d="M7760 3350 l0 -1180 1080 0 1080 0 0 123 -1 122 -24 -27 c-26 -30
-111 -73 -161 -81 -91 -16 -218 61 -240 147 -6 24 -4 26 29 26 20 0 45 -9 61
-21 44 -35 90 -42 150 -25 51 15 54 18 79 74 30 65 45 160 30 187 -8 13 -11 1
-15 -51 -6 -84 -34 -140 -85 -171 -39 -23 -87 -29 -111 -14 -10 6 -4 10 21 15
35 6 87 46 87 66 0 6 -17 2 -39 -10 -47 -23 -81 -27 -313 -36 -170 -7 -177 -8
-189 -30 -17 -33 -30 -36 -173 -39 -89 -2 -131 -6 -136 -15 -12 -20 0 -49 24
-53 11 -3 3 -4 -19 -4 -36 2 -40 5 -43 30 -3 20 -15 35 -48 56 -24 15 -41 30
-37 34 3 4 5 54 4 111 -2 100 -2 103 21 111 21 7 20 8 -12 14 l-35 6 -10 120
c-10 111 -13 125 -49 188 -21 37 -35 67 -32 67 3 0 13 -15 22 -32 9 -18 20
-35 23 -38 16 -13 41 -75 41 -100 0 -26 2 -27 25 -17 14 7 25 15 25 19 0 4 38
6 85 3 103 -6 132 -21 140 -73 15 -98 37 -139 64 -123 10 7 9 16 -7 47 -30 60
-37 123 -17 170 14 34 14 37 0 23 -8 -8 -19 -35 -23 -60 l-8 -44 -13 33 c-7
17 -17 32 -21 32 -4 0 -15 19 -26 43 -10 23 -21 44 -25 47 -3 3 -8 14 -11 25
-3 11 -9 28 -13 37 -6 16 -5 16 26 1 38 -19 152 -31 222 -23 44 6 47 5 47 -17
0 -13 -7 -40 -15 -61 -14 -31 -14 -38 -2 -47 23 -17 30 -52 11 -59 -24 -9 -42
10 -36 39 3 17 0 25 -10 25 -25 0 -29 -12 -13 -37 15 -22 14 -24 -7 -32 -20
-8 -24 -5 -28 23 -5 28 -6 26 -12 -18 -3 -27 -4 -56 -1 -63 7 -18 23 -16 23 3
0 9 7 14 18 12 13 -3 17 -13 17 -48 l0 -44 45 3 c25 1 88 11 140 22 52 10 98
19 101 19 4 0 10 11 13 25 11 42 64 147 89 173 32 35 91 62 147 69 73 9 163
-27 197 -79 14 -21 27 -38 29 -38 2 0 4 360 4 800 l0 800 -1080 0 -1080 0 0
-1180z m582 1154 c13 -9 64 -28 171 -65 33 -11 87 -33 120 -48 34 -16 80 -34
102 -41 45 -14 115 -42 192 -77 28 -13 59 -23 68 -23 8 0 23 -4 33 -9 38 -21
149 -69 187 -81 22 -7 70 -26 106 -41 36 -16 87 -33 115 -38 130 -26 251 -91
314 -171 53 -66 89 -176 90 -267 0 -49 -2 -53 -24 -53 l-24 0 -4 -161 -3 -161
-33 -29 c-25 -23 -42 -29 -75 -29 l-42 1 27 15 c15 8 34 27 42 42 19 36 32
182 17 182 -7 0 -11 -26 -11 -70 0 -99 -14 -122 -87 -143 -32 -9 -94 -18 -137
-21 -59 -3 -81 -8 -88 -20 -5 -9 -15 -16 -23 -16 -9 0 -15 -14 -17 -37 l-3
-38 -80 2 c-44 1 -233 3 -420 4 -233 1 -342 6 -347 13 -4 6 -8 26 -8 44 l0 32
103 1 c56 1 172 5 257 9 113 6 80 7 -122 3 -276 -4 -278 -4 -278 16 0 20 5 21
119 21 65 0 134 2 152 5 26 4 30 3 14 -4 -17 -8 -15 -10 15 -10 26 -1 31 2 20
9 -11 7 6 10 55 10 39 1 93 5 120 10 36 5 82 3 160 -10 144 -23 330 -35 339
-22 7 12 -38 24 -109 28 -27 1 -90 10 -139 18 -49 9 -112 16 -140 17 -50 0
-109 16 -76 19 8 1 1 5 -17 10 -17 4 -72 1 -125 -7 -51 -7 -187 -15 -303 -17
-115 -2 -187 -2 -160 0 28 2 120 8 205 15 205 14 239 21 267 54 22 25 23 32
23 247 l0 220 36 -21 c19 -12 40 -19 45 -15 6 3 15 1 22 -5 7 -5 42 -16 77
-24 36 -8 125 -33 198 -56 72 -22 140 -41 150 -41 26 0 245 -73 271 -90 17
-11 24 -28 28 -63 7 -63 23 -60 23 4 0 34 4 48 11 43 20 -12 25 14 18 98 -5
57 -15 102 -33 142 -14 33 -28 57 -31 54 -3 -2 6 -36 19 -74 28 -80 43 -164
29 -164 -5 0 -43 11 -83 25 -40 14 -81 25 -91 25 -10 0 -86 23 -170 50 -84 28
-160 50 -168 50 -9 0 -79 20 -155 45 -77 25 -149 45 -160 45 -12 0 -43 8 -70
17 -53 19 -91 60 -121 131 -11 23 -25 42 -33 42 -8 0 -10 -5 -6 -12 5 -9 4
-10 -4 -3 -5 6 -12 19 -14 30 -2 11 -10 20 -18 20 -19 0 -39 17 -33 28 2 4 14
2 25 -4 23 -12 23 -18 -2 79 -5 24 -22 55 -35 70 -14 15 -25 30 -25 34 0 13
-156 135 -190 148 -19 7 -40 17 -46 21 -21 16 -121 21 -179 9 -132 -27 -180
-49 -217 -98 -34 -47 -70 -160 -84 -264 -5 -37 3 -35 20 5 8 17 15 26 15 19 1
-7 6 -10 13 -6 7 5 9 2 5 -8 -4 -11 1 -18 15 -21 11 -3 17 -10 13 -16 -3 -6 2
-11 12 -12 16 0 16 -1 -2 -9 -12 -5 -14 -9 -6 -9 8 -1 22 -8 32 -17 16 -14 16
-17 1 -45 -10 -16 -26 -29 -36 -29 -18 0 -18 -1 -1 -20 10 -11 15 -20 10 -20
-4 0 -2 -6 4 -14 15 -17 4 -86 -13 -86 -15 0 -31 12 -39 30 -4 8 -11 22 -16
30 -5 8 -14 26 -20 40 -7 14 -18 36 -27 50 -18 31 -11 124 16 220 10 36 21 80
24 99 19 104 102 171 261 210 44 11 177 7 197 -5z m58 -288 c0 -2 -8 -10 -17
-17 -16 -13 -17 -12 -4 4 13 16 21 21 21 13z m150 -55 c9 -17 7 -19 -14 -15
-14 2 -27 0 -30 -5 -4 -6 -18 -6 -35 -1 -16 4 -32 5 -36 2 -3 -4 -3 1 1 11 7
18 34 24 34 7 0 -16 37 -12 44 5 8 21 23 19 36 -4z m-130 -21 c0 -5 0 -13 0
-17 0 -16 -38 -9 -49 8 -10 17 -8 19 19 19 16 0 30 -4 30 -10z m190 1 c0 -18
-18 -21 -30 -6 -10 13 -9 15 9 15 11 0 21 -4 21 -9z m-244 -23 c10 -11 -6 -48
-21 -48 -17 0 -38 36 -30 50 6 10 40 8 51 -2z m150 -9 c10 -17 -13 -36 -27
-22 -12 12 -4 33 11 33 5 0 12 -5 16 -11z m-53 -13 c3 -8 3 -16 0 -19 -9 -10
-33 5 -33 19 0 18 26 18 33 0z m104 -9 c-6 -20 -27 -19 -27 2 0 14 5 19 15 14
9 -3 14 -10 12 -16z m-157 -7 c0 -5 0 -13 0 -17 -1 -5 -12 -7 -24 -5 -15 2
-23 -2 -22 -10 1 -17 -18 -23 -22 -6 -1 7 10 20 25 30 33 19 43 21 43 8z m198
-38 c-11 -13 -9 -14 13 -9 18 5 29 2 32 -7 8 -20 -13 -38 -29 -25 -7 5 -34 21
-61 35 -37 19 -42 24 -21 21 16 -2 33 2 39 10 9 10 15 11 25 2 12 -9 12 -15 2
-27z m-284 19 c11 -18 -6 -42 -28 -39 -26 4 -33 35 -9 41 29 8 32 7 37 -2z m6
-70 c-12 -23 -30 -28 -30 -10 0 12 32 40 38 34 2 -2 -1 -13 -8 -24z m-46 -6
c3 -8 -2 -19 -12 -24 -9 -5 -14 -13 -10 -17 4 -4 14 -1 23 6 19 15 19 3 0 -30
l-13 -25 -11 27 c-5 14 -15 29 -20 33 -16 9 -13 25 4 25 8 0 15 5 15 10 0 15
17 12 24 -5z m402 2 c8 3 21 0 29 -7 17 -14 20 -50 5 -50 -5 0 -10 9 -10 20 0
20 -7 24 -48 22 -21 -1 -22 1 -11 14 8 10 15 12 17 6 2 -6 10 -8 18 -5z m9
-69 c-4 -33 -4 -34 -14 -19 -10 15 -4 41 9 41 4 0 6 -10 5 -22z m-434 -31 c4
-14 5 -58 3 -98 -3 -57 -1 -70 10 -66 8 3 16 -3 19 -15 5 -18 2 -19 -31 -13
-20 3 -43 13 -51 20 -15 14 -8 50 8 41 12 -8 41 3 41 15 0 5 -13 9 -29 9 -16
0 -31 6 -35 15 -7 20 22 47 45 40 10 -4 19 -3 19 2 0 13 -14 28 -27 29 -28 2
-33 4 -33 15 0 14 32 39 44 36 6 -2 13 -15 17 -30z m165 -3 c-20 -19 -30 -58
-23 -84 3 -11 1 -18 -4 -14 -22 13 6 114 32 114 6 0 3 -7 -5 -16z m301 -29 c0
-16 -32 -21 -41 -6 -7 11 4 21 24 21 9 0 17 -7 17 -15z m77 -21 c9 -3 13 -10
10 -15 -10 -17 -14 -55 -20 -204 -3 -82 -7 -151 -10 -154 -2 -2 -4 82 -4 187
0 106 2 192 4 192 2 0 11 -3 20 -6z m-76 -37 c2 -12 -3 -17 -17 -17 -15 0 -21
6 -21 21 0 25 33 22 38 -4z m-268 -50 c13 -5 13 -6 -1 -6 -8 -1 -24 6 -35 15
-19 15 -19 15 1 6 11 -5 27 -12 35 -15z m260 12 c0 -5 -4 -7 -10 -4 -5 3 -10
1 -10 -4 0 -6 -4 -11 -10 -11 -5 0 -10 7 -10 15 0 8 9 15 20 15 11 0 20 -5 20
-11z m-45 -65 c-8 -9 -15 -21 -15 -27 0 -7 -4 -6 -10 3 -9 15 18 52 33 43 4
-2 0 -11 -8 -19z m19 -28 c-3 -9 -10 -16 -15 -16 -6 0 -5 9 1 21 13 24 24 20
14 -5z m-404 6 c0 -5 -6 -16 -13 -26 -11 -15 -17 -17 -35 -7 -37 20 -26 41 20
41 15 0 28 -4 28 -8z m30 -28 c0 -8 -7 -14 -15 -14 -15 0 -21 21 -9 33 10 9
24 -2 24 -19z m320 1 c0 -8 -4 -15 -10 -15 -5 0 -10 7 -10 15 0 8 5 15 10 15
6 0 10 -7 10 -15z m20 -44 c-6 -12 -16 -19 -21 -15 -6 4 -4 13 7 25 21 24 29
18 14 -10z m-362 11 c15 -10 5 -42 -13 -42 -18 0 -28 17 -21 35 6 17 15 18 34
7z m300 -9 c-3 -13 -12 -17 -31 -15 -20 2 -25 -1 -21 -13 3 -8 2 -15 -4 -15
-6 0 -12 4 -14 9 -5 13 -48 24 -48 12 0 -5 5 -13 10 -16 14 -9 12 -25 -3 -25
-7 0 -17 10 -22 23 -6 12 -20 23 -32 25 -47 7 -21 17 34 14 32 -2 69 1 83 7
38 15 52 13 48 -6z m-238 -3 c0 -5 -4 -10 -10 -10 -5 0 -10 5 -10 10 0 6 5 10
10 10 6 0 10 -4 10 -10z m45 -20 c3 -6 -1 -13 -10 -16 -19 -8 -30 0 -20 15 8
14 22 14 30 1z m45 -26 c0 -8 -4 -14 -9 -14 -11 0 -22 26 -14 34 9 9 23 -3 23
-20z m180 14 c0 -7 -14 -27 -32 -45 -42 -44 -82 -45 -71 -3 5 17 7 18 20 4 21
-20 39 -12 35 16 -4 23 12 40 36 40 6 0 12 -5 12 -12z m-284 -13 c9 -23 -15
-48 -32 -34 -17 14 -18 36 -1 42 21 9 27 7 33 -8z m40 -42 c16 -17 16 -18 -7
-24 -21 -6 -21 -7 -4 -8 12 -1 38 -10 60 -21 l39 -20 -34 0 c-45 0 -104 35
-96 56 3 9 6 20 6 25 0 14 17 11 36 -8z m55 -15 c11 -11 19 -17 19 -12 0 5 4
15 9 23 8 12 12 12 26 -3 22 -22 18 -25 -36 -28 -39 -3 -44 0 -47 20 -4 28 5
28 29 0z m-101 -38 c0 -5 -5 -10 -11 -10 -5 0 -7 5 -4 10 3 6 8 10 11 10 2 0
4 -4 4 -10z m170 6 c0 -2 -7 -6 -15 -10 -8 -3 -15 -1 -15 4 0 6 7 10 15 10 8
0 15 -2 15 -4z m1108 -263 c-10 -2 -28 -2 -40 0 -13 2 -5 4 17 4 22 1 32 -1
23 -4z m-551 -825 c-3 -8 -6 -5 -6 6 -1 11 2 17 5 13 3 -3 4 -12 1 -19z m-107
-8 c0 -5 -5 -10 -11 -10 -5 0 -7 5 -4 10 3 6 8 10 11 10 2 0 4 -4 4 -10z"/>
<path d="M9504 4047 c66 -42 134 -101 155 -132 28 -41 42 -39 16 2 -29 47
-121 120 -170 136 -19 6 -19 6 -1 -6z"/>
<path d="M9750 3451 c0 -6 5 -13 10 -16 6 -3 10 1 10 9 0 9 -4 16 -10 16 -5 0
-10 -4 -10 -9z"/>
<path d="M9180 3194 c47 -7 96 -13 110 -12 37 0 -119 27 -160 26 -19 0 3 -6
50 -14z"/>
<path d="M9681 2988 c-1 -39 6 -47 27 -26 17 17 15 33 -2 19 -12 -10 -15 -7
-19 16 -3 23 -4 22 -6 -9z"/>
<path d="M9816 2934 c-7 -19 1 -34 19 -34 18 0 26 25 12 39 -15 15 -24 14 -31
-5z m24 -14 c0 -5 -4 -10 -10 -10 -5 0 -10 5 -10 10 0 6 5 10 10 10 6 0 10 -4
10 -10z"/>
<path d="M9533 2933 c-16 -6 -17 -39 -3 -48 13 -8 40 13 40 30 0 15 -19 24
-37 18z m22 -13 c3 -5 1 -10 -4 -10 -6 0 -11 5 -11 10 0 6 2 10 4 10 3 0 8 -4
11 -10z"/>
<path d="M9620 2820 c20 -13 40 -13 40 0 0 6 -12 10 -27 10 -22 0 -25 -2 -13
-10z"/>
<path d="M2672 2747 c-36 -7 -45 -14 -57 -44 -28 -67 -13 -150 32 -174 62 -33
154 -2 161 54 4 34 -22 37 -39 5 -16 -31 -28 -38 -66 -38 -41 0 -63 30 -63 88
0 32 6 49 25 67 32 33 50 31 87 -5 33 -34 58 -39 58 -12 -1 46 -65 74 -138 59z"/>
<path d="M3311 2747 c-7 -9 3 -45 35 -122 24 -60 44 -110 44 -112 0 -2 6 -3
14 -3 24 0 52 50 80 141 31 102 30 95 12 102 -10 4 -23 -20 -47 -89 -19 -52
-37 -94 -41 -94 -4 0 -10 12 -14 28 -15 67 -46 151 -59 156 -7 2 -18 -1 -24
-7z"/>
<path d="M3680 2747 c-37 -13 -47 -36 -36 -81 4 -18 19 -26 66 -39 57 -16 60
-19 60 -48 0 -30 -1 -30 -47 -27 -41 3 -48 6 -51 26 -4 26 -30 30 -39 5 -9
-23 49 -73 85 -73 37 0 90 34 98 64 10 40 -10 61 -76 81 -34 10 -64 25 -67 32
-17 43 73 58 92 16 13 -31 35 -29 35 2 0 39 -62 61 -120 42z"/>
<path d="M4620 2615 l0 -145 25 0 25 0 0 145 0 145 -25 0 -25 0 0 -145z"/>
<path d="M2886 2729 c-50 -44 -51 -143 -2 -186 40 -34 88 -39 130 -14 35 22
53 52 41 71 -12 19 -33 10 -45 -20 -11 -27 -17 -30 -55 -30 -42 0 -43 1 -53
43 -13 52 1 113 31 129 28 14 62 2 75 -27 8 -16 19 -25 29 -23 24 5 26 22 5
48 -14 18 -32 24 -74 28 -47 4 -58 1 -82 -19z"/>
<path d="M3090 2735 c0 -10 10 -15 34 -15 43 0 47 -11 45 -112 -1 -44 3 -84 9
-90 17 -17 25 11 23 91 -2 102 2 111 50 111 28 0 39 4 39 15 0 12 -18 15 -100
15 -82 0 -100 -3 -100 -15z"/>
<path d="M4077 2744 c-4 -4 -7 -17 -7 -30 0 -12 -6 -24 -12 -27 -10 -3 -10 -9
0 -26 6 -11 12 -45 12 -76 0 -45 4 -56 21 -65 25 -14 72 -4 66 13 -2 7 -9 13
-15 13 -7 1 -16 2 -22 3 -5 0 -10 24 -10 52 0 42 3 52 20 56 25 7 26 20 1 28
-12 3 -21 17 -23 32 -3 27 -18 39 -31 27z"/>
<path d="M4734 2727 c-2 -7 -3 -60 -2 -118 l3 -104 76 -3 c60 -2 80 1 93 13
27 28 31 64 9 93 -18 24 -18 29 -6 41 17 16 10 70 -10 83 -21 14 -157 10 -163
-5z m130 -30 c10 -7 17 -22 14 -33 -2 -15 -13 -20 -51 -22 l-47 -3 0 35 c0 34
2 36 33 36 18 0 41 -6 51 -13z m7 -97 c29 -16 24 -46 -10 -58 -16 -6 -38 -9
-48 -7 -10 2 -21 4 -25 4 -5 1 -8 17 -8 36 0 33 2 35 36 35 19 0 44 -5 55 -10z"/>
<path d="M4982 2723 c5 -25 28 -28 28 -4 0 12 -6 21 -16 21 -9 0 -14 -7 -12
-17z"/>
<path d="M5787 2733 c-4 -3 -7 -18 -7 -33 0 -14 -6 -32 -12 -39 -10 -11 -10
-14 0 -18 7 -3 12 -24 12 -58 0 -76 5 -85 51 -85 28 0 39 4 39 15 0 8 -9 15
-20 15 -26 0 -33 33 -21 103 0 4 7 7 15 7 27 0 27 20 1 30 -16 6 -26 17 -24
27 3 32 -1 43 -14 43 -8 0 -17 -3 -20 -7z"/>
<path d="M6052 2724 c4 -21 22 -23 26 -1 2 10 -3 17 -13 17 -10 0 -15 -6 -13
-16z"/>
<path d="M6437 2713 c-14 -29 -12 -61 4 -78 6 -5 31 -17 56 -25 54 -18 73 -41
54 -64 -21 -25 -66 -20 -89 9 -34 43 -53 30 -30 -20 30 -67 178 -37 178 37 0
29 -45 68 -77 68 -33 0 -73 25 -73 45 0 15 36 31 59 26 8 -1 23 -14 34 -27 22
-28 37 -23 37 11 0 32 -27 45 -89 45 -45 0 -52 -3 -64 -27z"/>
<path d="M7020 2706 c0 -20 -4 -36 -10 -36 -5 0 -10 -7 -10 -15 0 -8 5 -15 10
-15 6 0 10 -28 10 -65 0 -58 2 -67 22 -74 11 -4 32 -6 45 -3 31 6 30 32 -2 32
-24 0 -25 3 -25 55 0 48 2 55 20 55 26 0 26 20 1 27 -14 3 -21 15 -23 36 -2
21 -9 33 -20 35 -15 3 -18 -4 -18 -32z"/>
<path d="M8933 2694 c3 -3 22 -6 42 -6 20 0 39 3 42 6 4 3 -15 6 -42 6 -27 0
-46 -3 -42 -6z"/>
<path d="M3882 2674 c-31 -21 -32 -112 -1 -140 27 -25 91 -25 118 0 29 26 16
39 -20 20 -31 -15 -68 -11 -81 10 -15 22 -7 26 41 26 63 0 81 7 81 32 0 54
-88 87 -138 52z m86 -26 c21 -21 13 -28 -33 -28 -43 0 -45 1 -35 20 12 22 49
27 68 8z"/>
<path d="M4187 2683 c-4 -3 -7 -35 -7 -70 0 -50 4 -67 20 -83 23 -23 36 -24
70 -7 21 11 27 11 36 -2 22 -29 34 0 34 85 0 76 -2 85 -17 82 -14 -2 -19 -15
-21 -48 -4 -79 -9 -90 -41 -90 -35 0 -41 13 -41 86 0 38 -4 54 -13 54 -8 0
-17 -3 -20 -7z"/>
<path d="M4390 2570 c0 -113 1 -120 20 -120 17 0 20 7 20 46 0 42 1 44 17 29
11 -12 25 -15 46 -11 35 7 54 29 63 72 14 71 -64 134 -109 89 -13 -13 -16 -13
-21 0 -3 8 -12 15 -21 15 -13 0 -15 -19 -15 -120z m113 76 c18 -14 23 -61 8
-85 -9 -14 -57 -19 -69 -7 -3 4 -7 25 -7 47 0 54 30 74 68 45z"/>
<path d="M5625 2669 c-38 -11 -55 -34 -55 -75 0 -71 28 -100 95 -95 28 2 65
26 65 43 0 11 -38 10 -45 -2 -10 -16 -51 -11 -68 8 -24 26 -13 32 55 32 57 0
58 0 58 29 0 45 -51 75 -105 60z m65 -54 c0 -11 -12 -15 -40 -15 -45 0 -56 24
-17 39 26 10 57 -3 57 -24z"/>
<path d="M6195 2672 c-11 -2 -30 -13 -42 -25 -52 -47 -12 -151 56 -149 38 1
81 26 81 47 0 19 -24 19 -40 0 -17 -20 -53 -19 -73 3 -19 21 -21 45 -7 73 14
25 68 26 86 2 10 -14 15 -15 25 -6 24 24 -39 65 -86 55z"/>
<path d="M7180 2668 c-43 -16 -60 -39 -60 -80 0 -55 34 -88 93 -88 40 0 77 21
77 43 0 11 -38 8 -45 -3 -10 -17 -51 -11 -69 9 -20 22 -9 33 27 31 12 -1 37
-2 55 -1 28 1 32 4 32 30 0 16 -6 34 -14 40 -23 20 -70 29 -96 19z m68 -50 c3
-15 -4 -18 -37 -18 -39 0 -53 14 -34 34 14 14 68 1 71 -16z"/>
<path d="M4980 2585 c0 -69 3 -85 15 -85 12 0 15 16 15 85 0 69 -3 85 -15 85
-12 0 -15 -16 -15 -85z"/>
<path d="M5086 2649 c-36 -28 -37 -89 -1 -124 36 -37 97 -35 124 4 62 87 -39
186 -123 120z m105 -36 c14 -37 -7 -77 -43 -81 -34 -4 -52 27 -43 74 5 31 9
34 41 34 28 0 36 -5 45 -27z"/>
<path d="M5277 2663 c-13 -13 -8 -150 6 -162 21 -16 27 -3 27 55 0 71 7 84 41
84 l29 0 0 -69 c0 -39 4 -72 9 -75 17 -11 30 20 33 79 3 59 3 60 33 60 l30 0
3 -67 c2 -52 6 -68 17 -68 16 0 17 6 17 88 0 29 -6 59 -12 67 -15 18 -61 20
-78 3 -10 -10 -17 -10 -32 0 -25 16 -62 15 -79 0 -11 -10 -14 -10 -18 0 -5 13
-16 16 -26 5z"/>
<path d="M5897 2663 c-13 -13 -8 -150 6 -162 22 -17 37 8 37 60 0 65 7 79 41
79 16 0 29 5 29 10 0 18 -32 24 -53 10 -15 -9 -22 -10 -25 -1 -4 12 -25 15
-35 4z"/>
<path d="M6049 2648 c-1 -12 -2 -34 -1 -48 1 -93 2 -100 17 -100 13 0 15 14
13 82 -2 54 -7 83 -15 86 -8 2 -14 -6 -14 -20z"/>
<path d="M6635 2661 c-3 -5 10 -45 29 -88 30 -68 33 -81 22 -98 -7 -11 -23
-21 -35 -23 -33 -5 -25 -22 12 -22 38 1 67 20 67 45 0 9 16 53 35 97 34 80 36
98 10 98 -14 0 -45 -68 -45 -100 0 -38 -17 -20 -39 40 -20 55 -41 74 -56 51z"/>
<path d="M6842 2661 c-8 -5 -12 -22 -10 -42 3 -29 8 -35 40 -44 50 -14 63 -28
43 -45 -14 -12 -22 -11 -51 5 -38 21 -51 16 -35 -13 21 -39 118 -30 135 13 10
26 -8 47 -55 65 -24 10 -45 22 -46 27 -7 19 30 24 54 7 34 -22 54 -3 22 20
-25 17 -76 21 -97 7z"/>
<path d="M7330 2585 c0 -78 2 -85 20 -85 20 0 24 10 21 60 -3 40 16 80 38 80
24 0 31 -19 31 -86 0 -47 2 -54 20 -54 18 0 20 7 20 54 0 70 7 86 36 86 22 0
23 -4 26 -67 3 -62 5 -68 26 -71 21 -3 22 0 22 67 0 50 -4 74 -16 85 -18 19
-80 21 -87 4 -4 -10 -7 -10 -18 0 -7 6 -25 12 -39 12 -14 0 -32 -6 -39 -12
-11 -10 -14 -10 -18 0 -3 6 -13 12 -24 12 -17 0 -19 -8 -19 -85z"/>
<path d="M1430 2535 c-14 -17 -6 -46 21 -71 20 -18 21 -18 38 4 20 28 51 24
95 -12 24 -19 27 -25 18 -43 -6 -11 -8 -23 -5 -27 12 -12 71 -6 83 9 18 22 3
55 -26 55 -18 0 -23 -4 -18 -12 8 -14 -14 1 -52 34 -11 10 -41 23 -65 28 l-44
9 43 -3 c26 -3 56 -14 77 -30 20 -16 36 -22 40 -16 4 6 12 7 18 4 7 -4 5 0 -3
9 -8 9 -41 30 -74 46 -63 34 -126 41 -146 16z m35 -15 c3 -5 2 -10 -4 -10 -5
0 -13 5 -16 10 -3 6 -2 10 4 10 5 0 13 -4 16 -10z"/>
<path d="M9524 2435 c-4 -8 -1 -22 6 -30 16 -19 40 -2 40 26 0 23 -38 26 -46
4z"/>
<path d="M9812 2423 c2 -20 8 -28 23 -28 31 0 28 49 -3 53 -20 3 -23 0 -20
-25z"/>
<path d="M1102 2433 c-26 -3 -45 -10 -49 -19 -8 -21 14 -243 28 -283 15 -44
59 -65 118 -56 93 13 96 19 106 171 6 86 4 108 -11 140 -10 22 -23 42 -28 46
-11 8 -84 8 -164 1z"/>
<path d="M1480 2409 c0 -5 5 -7 10 -4 6 3 10 8 10 11 0 2 -4 4 -10 4 -5 0 -10
-5 -10 -11z"/>
<path d="M2644 2377 c-2 -7 -3 -60 -2 -118 3 -96 4 -104 23 -104 17 0 20 8 23
53 l3 52 50 0 c66 0 62 24 -4 28 -46 3 -47 4 -47 38 l0 34 61 0 c44 0 60 3 57
13 -7 18 -157 22 -164 4z"/>
<path d="M2847 2383 c-13 -12 -7 -23 13 -23 11 0 20 7 20 15 0 15 -21 21 -33
8z"/>
<path d="M3422 2368 c-18 -34 -64 -170 -65 -193 -3 -34 30 -30 36 5 6 29 8 30
59 30 49 0 54 -2 66 -30 14 -31 39 -40 48 -17 3 8 -16 62 -42 120 -39 89 -51
107 -69 107 -12 0 -27 -10 -33 -22z m56 -75 c6 -24 7 -44 3 -44 -32 -7 -61 -3
-57 7 3 7 10 31 17 53 14 48 24 44 37 -16z"/>
<path d="M3605 2378 c-3 -8 -4 -61 -3 -119 3 -96 4 -104 23 -104 19 0 20 7 20
115 0 101 -2 115 -18 118 -9 2 -19 -3 -22 -10z"/>
<path d="M4630 2245 c0 -138 1 -145 20 -145 19 0 20 7 20 145 0 138 -1 145
-20 145 -19 0 -20 -7 -20 -145z"/>
<path d="M9696 2376 c3 -8 -2 -16 -13 -19 -16 -4 -16 -5 -1 -6 11 -1 15 -6 12
-16 -4 -8 -1 -15 4 -15 6 0 13 8 17 19 6 21 -3 51 -16 51 -4 0 -6 -6 -3 -14z"/>
<path d="M4787 2349 c-26 -15 -47 -63 -47 -110 0 -33 6 -47 33 -74 45 -45 91
-53 152 -26 46 20 46 21 43 63 l-3 43 -52 3 c-42 2 -53 0 -53 -12 0 -9 12 -16
32 -18 39 -4 51 -42 15 -52 -74 -20 -117 8 -117 78 0 32 6 50 25 70 30 33 59
33 89 1 27 -29 56 -33 56 -7 0 35 -32 52 -96 52 -32 0 -67 -5 -77 -11z"/>
<path d="M5020 2246 c0 -69 4 -117 10 -121 20 -12 40 17 40 56 0 36 2 39 29
39 36 0 83 17 93 33 12 19 9 82 -4 95 -7 7 -43 12 -90 12 l-78 0 0 -114z m129
69 c8 -8 10 -21 6 -34 -5 -17 -14 -21 -46 -21 -38 0 -39 1 -39 33 0 19 3 37 6
40 9 9 56 -3 73 -18z"/>
<path d="M5254 2335 c-32 -49 -3 -79 103 -110 29 -8 38 -36 17 -52 -30 -22
-72 -16 -90 12 -19 30 -44 33 -44 5 0 -26 37 -58 76 -66 65 -12 116 38 100 99
-5 21 -15 29 -49 37 -59 15 -72 24 -72 51 0 20 6 25 32 27 25 3 35 -2 49 -22
20 -32 34 -33 34 -3 0 36 -19 47 -82 47 -50 0 -60 -3 -74 -25z"/>
<path d="M650 2334 c-58 -37 -91 -127 -76 -207 8 -40 60 -102 99 -116 44 -17
137 15 137 46 0 7 4 13 9 13 15 0 31 59 31 112 0 59 -38 131 -81 153 -36 19
-87 19 -119 -1z"/>
<path d="M2847 2323 c-4 -3 -7 -42 -7 -85 0 -62 3 -80 15 -85 9 -3 18 -4 20
-2 7 8 9 154 2 167 -9 13 -20 16 -30 5z"/>
<path d="M2937 2323 c-4 -3 -7 -42 -7 -85 0 -62 3 -80 15 -85 22 -8 26 -2 29
56 4 59 20 83 50 79 28 -4 34 28 6 37 -14 4 -28 1 -39 -10 -17 -14 -19 -14
-24 0 -7 16 -19 19 -30 8z"/>
<path d="M3095 2305 c-29 -28 -33 -51 -20 -111 5 -23 43 -44 81 -44 26 0 74
26 74 41 0 14 -26 10 -40 -6 -18 -22 -57 -18 -74 7 -9 12 -16 26 -16 30 0 4
28 8 63 10 54 3 62 6 65 24 2 11 -7 32 -18 47 -29 36 -81 37 -115 2z m85 -20
c17 -21 3 -35 -36 -35 -35 0 -44 16 -22 38 16 16 43 15 58 -3z"/>
<path d="M3724 2320 c-25 -10 -39 -39 -24 -54 6 -6 17 -3 33 12 28 27 53 28
66 3 9 -16 4 -19 -45 -30 -43 -10 -58 -18 -67 -38 -10 -22 -8 -28 12 -44 27
-22 50 -24 85 -8 20 9 29 9 41 -1 25 -21 32 0 26 74 -5 51 -12 72 -26 82 -21
15 -68 17 -101 4z m86 -97 c0 -23 -29 -53 -52 -53 -23 0 -34 26 -18 45 10 12
21 16 63 24 4 0 7 -7 7 -16z"/>
<path d="M3907 2323 c-4 -3 -7 -44 -7 -90 0 -75 2 -84 18 -81 13 2 18 16 22
58 6 68 14 81 47 78 36 -4 41 19 8 34 -23 10 -29 10 -40 -5 -11 -15 -13 -16
-19 -2 -6 16 -18 19 -29 8z"/>
<path d="M4068 2323 c-18 -5 -36 -49 -24 -60 3 -4 16 4 27 16 24 26 72 26 77
-1 2 -12 -7 -18 -40 -23 -49 -8 -78 -29 -78 -57 0 -42 41 -58 96 -38 20 8 29
8 35 -1 4 -7 13 -9 21 -7 22 9 7 147 -18 165 -17 13 -61 15 -96 6z m72 -139
c-25 -29 -90 -7 -71 25 5 7 24 16 42 20 28 6 35 4 37 -12 2 -10 -2 -25 -8 -33z"/>
<path d="M4246 2319 c-4 -9 -6 -49 -4 -90 2 -58 6 -74 18 -74 11 0 16 16 20
63 5 63 19 86 46 75 9 -3 14 -28 16 -71 2 -54 6 -67 21 -70 14 -3 17 5 17 52
0 44 5 61 21 77 30 30 42 12 47 -67 4 -53 7 -64 21 -62 13 3 17 18 19 75 3 68
2 73 -24 89 -24 16 -29 17 -53 3 -24 -14 -29 -14 -50 -1 -20 14 -26 13 -55 0
-30 -15 -33 -15 -43 1 -10 14 -12 15 -17 0z"/>
<path d="M2318 1856 c-113 -67 -180 -194 -157 -298 22 -95 124 -135 227 -88
23 10 42 23 42 29 0 5 -15 2 -32 -7 -102 -52 -203 13 -201 128 1 74 43 151
107 193 85 56 147 58 204 5 12 -12 22 -17 22 -12 0 14 -12 27 -44 52 -39 30
-116 29 -168 -2z"/>
<path d="M2595 1868 c-2 -7 -12 -40 -21 -73 -16 -58 -18 -59 -28 -34 -9 22
-11 12 -12 -61 0 -75 -3 -90 -22 -110 -12 -13 -22 -27 -22 -32 0 -19 43 -5 75
25 30 28 37 44 51 117 9 47 23 102 30 124 8 21 11 42 8 47 -8 14 -54 11 -59
-3z"/>
<path d="M2662 1728 c-24 -84 -42 -161 -42 -170 0 -14 8 -18 35 -18 41 0 54
22 62 102 6 54 35 90 55 70 10 -10 9 -26 -4 -75 -9 -34 -18 -69 -20 -77 -2
-10 7 -16 29 -18 38 -4 43 3 73 116 28 102 20 132 -33 132 -18 0 -38 -5 -45
-12 -17 -17 -24 -5 -14 23 5 13 12 36 16 52 6 26 5 27 -32 27 l-39 0 -41 -152z"/>
<path d="M5750 1866 c-8 -8 -31 -18 -50 -23 -40 -11 -48 -28 -49 -120 -1 -73
33 -226 60 -268 25 -40 66 -85 76 -85 14 0 83 71 83 85 0 7 9 33 20 58 28 64
44 179 36 260 -7 60 -10 67 -29 67 -12 0 -37 9 -55 20 -38 24 -72 26 -92 6z
m-6 -101 c8 -9 18 -31 22 -50 5 -28 11 -35 30 -35 20 0 24 5 24 32 0 30 23 68
42 68 12 0 10 -228 -2 -251 -19 -35 -40 -23 -40 24 0 50 -4 57 -31 50 -15 -4
-19 -14 -19 -49 0 -50 -18 -59 -44 -22 -12 17 -16 49 -16 135 0 63 4 113 9
113 5 0 16 -7 25 -15z"/>
<path d="M8599 1821 c-44 -44 -39 -56 21 -51 29 2 80 27 80 39 0 14 -36 41
-54 41 -10 0 -31 -13 -47 -29z"/>
<path d="M380 1821 c0 -14 20 -29 73 -54 l72 -34 -40 -18 c-65 -28 -84 -39
-86 -50 -2 -5 25 -24 59 -42 l62 -32 -70 -38 c-39 -20 -70 -43 -70 -50 0 -23
8 -20 118 35 l63 32 62 -32 c108 -55 117 -58 117 -35 0 8 -24 26 -52 42 -84
45 -84 44 -18 77 33 16 60 33 60 38 0 13 -42 40 -61 40 -9 0 -27 9 -40 19
l-24 20 68 31 c50 24 67 37 67 52 0 11 -3 18 -7 16 -58 -29 -167 -78 -175 -78
-10 0 -24 6 -116 53 -62 32 -62 32 -62 8z m253 -142 l29 -17 -44 -26 c-55 -32
-59 -32 -116 1 l-46 27 49 23 c53 24 79 22 128 -8z"/>
<path d="M534 1675 c-16 -13 -17 -16 -4 -25 8 -5 22 -10 30 -10 8 0 22 5 30
10 13 9 12 12 -4 25 -11 8 -23 15 -26 15 -3 0 -15 -7 -26 -15z"/>
<path d="M820 1825 c-16 -20 -24 -85 -16 -140 8 -49 33 -69 74 -58 25 6 49 63
28 63 -8 0 -16 -7 -20 -15 -8 -21 -43 -19 -56 4 -5 11 -10 40 -10 65 0 56 26
77 62 51 33 -23 40 -18 23 15 -12 23 -22 30 -44 30 -16 0 -34 -7 -41 -15z"/>
<path d="M950 1729 c0 -84 3 -110 13 -107 6 3 14 22 17 44 4 32 9 40 30 42 37
5 60 31 60 67 0 43 -27 65 -78 65 l-42 0 0 -111z m76 67 c15 -12 17 -18 8 -33
-24 -38 -67 -10 -50 33 7 18 17 18 42 0z"/>
<path d="M1144 1827 c-3 -8 -3 -56 -2 -108 2 -75 6 -94 18 -94 11 0 15 11 15
40 0 38 2 40 33 43 42 4 66 39 57 82 -4 16 -15 35 -25 40 -27 15 -90 12 -96
-3z m93 -44 c5 -14 -24 -43 -42 -43 -18 0 -27 28 -15 50 8 15 16 17 32 11 12
-4 24 -13 25 -18z"/>
<path d="M1290 1733 l0 -108 52 1 c40 1 54 5 56 18 3 13 -5 16 -37 16 l-41 0
0 90 c0 73 -3 90 -15 90 -12 0 -15 -19 -15 -107z"/>
<path d="M1420 1759 c0 -44 5 -89 10 -99 27 -51 90 -44 109 11 6 17 11 63 11
101 0 60 -2 69 -17 66 -14 -2 -16 -13 -14 -62 3 -61 -13 -116 -33 -116 -27 0
-36 26 -36 102 0 63 -3 78 -15 78 -12 0 -15 -16 -15 -81z"/>
<path d="M1586 1824 c-19 -18 -21 -75 -4 -92 7 -7 20 -12 31 -12 10 0 27 -5
38 -10 16 -9 17 -14 8 -32 -9 -17 -17 -19 -50 -14 -31 5 -39 3 -39 -9 0 -20
44 -37 76 -29 15 4 27 16 31 33 15 57 1 85 -47 95 -21 4 -30 11 -30 25 0 20
32 37 50 26 15 -9 30 4 23 20 -7 20 -67 19 -87 -1z"/>
<path d="M3676 1828 c-2 -7 -17 -58 -35 -113 -17 -55 -31 -103 -31 -107 0 -5
14 -8 30 -8 25 0 30 4 30 24 0 31 18 78 33 88 7 4 25 8 41 8 27 0 28 -1 22
-37 -3 -21 -9 -48 -12 -60 -5 -19 -2 -23 17 -23 22 0 27 11 57 103 39 123 40
137 9 137 -18 0 -26 -9 -38 -42 -14 -39 -19 -43 -54 -46 -35 -3 -37 -2 -31 20
19 71 20 68 -8 68 -15 0 -28 -6 -30 -12z"/>
<path d="M3911 1822 c-16 -30 -48 -135 -55 -179 -6 -40 -5 -43 17 -43 20 0 27
12 55 98 38 116 40 142 12 142 -10 0 -24 -8 -29 -18z"/>
<path d="M4024 1832 c-14 -9 -59 -142 -67 -195 -6 -36 -5 -38 20 -35 22 2 28
11 40 51 7 26 17 47 22 47 5 0 18 -22 29 -50 19 -45 24 -50 51 -50 17 0 31 5
31 10 0 6 -14 40 -32 76 l-32 65 37 34 c33 31 47 55 31 55 -3 0 -24 -16 -47
-35 -47 -41 -61 -44 -52 -12 4 12 8 26 9 31 1 13 -26 18 -40 8z"/>
<path d="M4225 1773 c13 -153 16 -173 30 -173 14 0 71 93 91 149 7 19 17 37
22 40 5 3 14 16 21 29 9 18 9 22 -2 22 -7 0 -31 -35 -53 -77 -50 -98 -64 -104
-64 -26 0 77 -8 103 -31 103 -18 0 -19 -6 -14 -67z"/>
<path d="M4401 1719 l-40 -120 27 3 c28 3 35 17 65 133 8 33 18 70 22 83 6 18
4 22 -13 22 -17 0 -27 -19 -61 -121z"/>
<path d="M4520 1824 c-31 -37 -5 -105 48 -125 28 -11 30 -54 3 -69 -11 -5 -40
-10 -65 -10 -25 0 -46 -4 -46 -10 0 -15 143 -13 158 2 7 7 12 31 12 55 0 40
-4 46 -45 75 -25 18 -45 38 -45 45 0 19 37 35 75 31 19 -1 40 3 47 10 9 9 -3
12 -59 12 -52 0 -74 -4 -83 -16z"/>
<path d="M4687 1727 c-20 -62 -37 -116 -37 -120 0 -4 11 -7 24 -7 27 0 27 1
50 102 9 38 22 84 30 103 15 34 14 35 -7 35 -20 0 -27 -14 -60 -113z"/>
<path d="M4825 1814 c-14 -15 -35 -57 -47 -95 -18 -56 -20 -73 -10 -94 10 -22
17 -25 64 -25 29 0 58 4 64 8 16 10 61 111 69 153 11 59 -6 79 -66 79 -41 0
-54 -5 -74 -26z m88 -35 c-4 -94 -43 -174 -81 -167 -24 4 -26 37 -8 110 11 42
25 71 42 86 36 32 49 23 47 -29z"/>
<path d="M5025 1828 c-2 -7 -11 -40 -19 -73 -8 -33 -21 -82 -30 -108 -11 -36
-12 -47 -3 -45 6 3 20 39 31 81 12 49 24 77 32 77 8 0 14 -7 14 -15 0 -30 43
-145 55 -145 6 0 30 54 53 121 23 66 36 119 30 117 -7 -3 -20 -29 -30 -59 -38
-113 -36 -112 -66 -23 -19 53 -33 80 -45 82 -9 2 -19 -2 -22 -10z"/>
<path d="M9130 1831 c-8 -5 -32 -11 -52 -15 -37 -7 -54 -26 -23 -26 12 0 15
-18 15 -104 0 -83 -3 -105 -15 -110 -8 -3 -15 -10 -15 -16 0 -6 32 -10 80 -10
62 0 80 3 80 14 0 8 -7 16 -15 20 -15 6 -21 36 -7 36 4 0 23 -16 42 -35 30
-31 40 -35 86 -35 80 0 115 21 55 33 -27 6 -101 72 -101 91 0 4 21 28 48 52
l47 44 -64 -2 c-60 -3 -66 -5 -81 -32 -29 -53 -40 -44 -40 33 0 72 -6 81 -40
62z"/>
<path d="M7834 1819 c-4 -7 1 -16 10 -21 13 -7 16 -26 16 -104 0 -91 -1 -96
-27 -119 l-28 -24 131 -1 c128 0 132 1 167 28 43 33 57 60 57 112 0 47 -24 90
-65 119 -27 18 -45 21 -143 21 -72 0 -113 -4 -118 -11z m201 -74 l35 -54 -27
-44 c-24 -40 -60 -74 -68 -65 -3 3 -8 185 -6 211 2 24 36 0 66 -48z"/>
<path d="M8297 1823 c-12 -12 -7 -22 13 -28 18 -6 20 -15 20 -106 0 -97 -1
-100 -25 -109 -14 -5 -25 -14 -25 -20 0 -7 45 -10 133 -8 l132 3 3 54 c3 46 1
53 -13 47 -9 -3 -19 -6 -21 -6 -2 0 -4 -8 -4 -18 0 -25 -35 -56 -55 -49 -21 9
-22 205 -1 213 8 3 17 12 20 20 4 11 -11 14 -83 14 -48 0 -91 -3 -94 -7z"/>
<path d="M2311 1764 c-17 -14 -31 -32 -31 -40 0 -19 59 -18 83 1 21 16 47 10
47 -11 0 -8 -10 -14 -23 -14 -42 0 -118 -32 -133 -55 -22 -34 -14 -76 18 -94
24 -14 30 -14 65 3 24 12 39 14 41 7 2 -6 19 -11 37 -11 28 0 33 4 38 28 2 15
13 57 23 93 17 63 17 68 1 93 -16 23 -24 26 -76 26 -49 0 -65 -4 -90 -26z m69
-143 c-10 -20 -60 -30 -60 -13 0 11 30 38 50 44 20 7 24 -6 10 -31z"/>
<path d="M2907 1758 c-2 -18 -13 -63 -23 -101 -14 -49 -16 -72 -8 -84 20 -32
39 -37 75 -19 21 10 35 13 37 6 2 -5 19 -10 37 -10 31 0 35 3 49 48 9 26 22
80 29 120 l14 72 -37 0 -37 0 -23 -84 c-13 -51 -29 -87 -38 -91 -31 -12 -33
13 -9 94 l25 81 -43 0 c-41 0 -43 -2 -48 -32z"/>
<path d="M3172 1757 c-18 -18 -29 -36 -26 -40 12 -12 64 -8 87 8 14 8 28 11
36 6 19 -12 5 -31 -24 -31 -44 0 -113 -37 -130 -71 -16 -30 -16 -33 3 -58 23
-32 51 -37 90 -17 20 10 32 12 39 5 6 -6 23 -9 38 -7 26 3 30 9 53 92 23 80
24 91 11 115 -13 23 -21 26 -79 29 -63 3 -67 1 -98 -31z m88 -111 c0 -21 -28
-46 -51 -46 -30 0 -24 34 9 47 38 15 42 15 42 -1z"/>
<path d="M8795 1774 c-22 -8 -46 -17 -54 -19 -11 -4 -11 -8 -1 -20 9 -11 11
-40 8 -100 l-6 -85 64 0 c61 0 92 14 60 26 -22 8 -23 116 -1 134 25 21 35 1
35 -69 0 -39 5 -72 12 -79 7 -7 33 -12 58 -12 l46 0 -4 98 c-2 53 -8 105 -14
115 -11 21 -56 22 -105 2 -44 -19 -43 -19 -43 5 0 23 -1 23 -55 4z"/>
<path d="M5999 1693 c0 -43 -1 -104 -2 -136 -2 -48 1 -57 15 -57 13 0 18 11
20 53 3 50 4 52 33 52 29 0 30 -2 33 -52 3 -45 6 -53 23 -53 19 0 19 6 17 132
-3 117 -5 133 -20 136 -16 3 -18 -5 -18 -57 l0 -61 -35 0 -35 0 0 60 c0 47 -3
60 -15 60 -12 0 -15 -16 -16 -77z"/>
<path d="M6160 1636 c0 -130 1 -136 20 -136 20 0 20 5 18 132 -3 117 -5 133
-20 136 -16 3 -18 -8 -18 -132z"/>
<path d="M6360 1635 c0 -128 1 -135 20 -135 18 0 20 7 20 55 0 54 0 55 30 55
23 0 30 4 30 20 0 16 -7 20 -30 20 -27 0 -30 3 -30 30 0 28 3 30 35 30 29 0
37 5 45 26 6 14 10 26 10 27 0 1 -29 3 -65 4 l-65 2 0 -134z"/>
<path d="M6530 1755 c-4 -5 -8 -64 -7 -130 l2 -120 60 0 60 0 3 110 c4 150 4
150 -58 150 -28 0 -55 -4 -60 -10z m91 -90 c3 -54 -3 -110 -12 -113 -5 -2 -9
-10 -9 -18 0 -8 -7 -14 -15 -14 -8 0 -15 6 -15 14 0 8 -5 16 -11 18 -19 6 -14
132 7 163 l18 27 18 -24 c9 -12 18 -36 19 -53z"/>
<path d="M6582 1630 c0 -19 2 -27 5 -17 2 9 2 25 0 35 -3 9 -5 1 -5 -18z"/>
<path d="M6684 1755 c-3 -6 -3 -65 -2 -131 l3 -119 54 -3 c54 -3 70 5 71 36 0
10 -12 13 -42 10 l-43 -3 -3 83 -3 82 41 0 c22 0 40 3 40 8 0 4 3 17 6 28 5
20 2 21 -56 21 -36 0 -64 -5 -66 -12z"/>
<path d="M6838 1644 c-2 -69 0 -130 3 -136 3 -5 32 -8 65 -6 l59 3 3 133 c2
124 1 133 -15 130 -16 -3 -18 -17 -21 -111 l-3 -108 -27 3 c-26 3 -27 3 -28
88 -2 124 -3 130 -18 130 -12 0 -15 -24 -18 -126z"/>
<path d="M7014 1755 c-11 -8 -14 -27 -12 -75 l3 -65 45 -5 c40 -4 45 -8 48
-32 3 -26 1 -28 -35 -28 -31 0 -40 -5 -50 -25 l-11 -25 58 0 c33 0 62 5 66 11
9 15 8 114 -1 128 -3 6 -26 11 -51 11 -42 0 -44 1 -44 30 0 28 2 30 40 30 22
0 40 3 40 8 0 4 3 17 6 28 5 20 2 22 -41 21 -25 0 -53 -6 -61 -12z"/>
<path d="M8660 1755 c-14 -8 -37 -14 -52 -15 -28 0 -50 -21 -30 -28 15 -5 16
-128 2 -137 -26 -16 -3 -25 65 -25 60 0 75 3 75 15 0 8 -4 15 -10 15 -6 0 -10
38 -10 95 0 52 -3 95 -7 95 -5 -1 -19 -7 -33 -15z"/>
<path d="M8198 1699 c-31 -18 -19 -29 30 -29 36 0 54 5 67 20 18 20 17 20 -31
20 -27 0 -57 -5 -66 -11z"/>
<path d="M6250 1625 c0 -21 5 -25 30 -25 25 0 30 4 30 25 0 21 -5 25 -30 25
-25 0 -30 -4 -30 -25z"/>
<path d="M930 1528 c0 -28 3 -48 7 -44 4 4 8 16 8 26 0 31 19 27 26 -6 6 -28
7 -28 8 7 1 29 -3 38 -20 42 -12 3 -18 10 -14 16 3 6 1 11 -4 11 -6 0 -11 -22
-11 -52z"/>
<path d="M807 1544 c-11 -11 -8 -52 3 -59 6 -3 15 -3 22 1 8 5 6 10 -8 15 -17
7 -18 8 -1 8 12 1 17 7 15 18 -3 18 -20 27 -31 17z m18 -14 c3 -5 1 -10 -4
-10 -6 0 -11 5 -11 10 0 6 2 10 4 10 3 0 8 -4 11 -10z"/>
<path d="M860 1521 c0 -17 5 -31 10 -31 6 0 10 9 10 20 0 27 17 25 23 -2 4
-16 5 -13 4 7 -2 23 -7 31 -24 33 -20 3 -23 -1 -23 -27z"/>
<path d="M1016 1535 c17 -13 17 -14 2 -15 -26 0 -24 -40 2 -40 16 0 20 7 20
35 0 29 -4 35 -22 35 -21 0 -21 0 -2 -15z"/>
<path d="M1069 1543 c0 -4 -2 -18 -5 -30 -2 -12 1 -25 6 -28 6 -3 11 6 11 22
1 21 3 23 6 8 9 -38 25 -42 21 -5 -2 24 -9 36 -20 38 -10 2 -18 0 -19 -5z"/>
<path d="M1137 1543 c-4 -3 -7 -17 -7 -30 0 -27 26 -41 43 -24 8 8 7 11 -6 11
-9 0 -17 7 -17 15 0 8 5 15 10 15 6 0 10 5 10 10 0 11 -23 14 -33 3z"/>
<path d="M1193 1515 c0 -22 2 -30 4 -17 2 12 2 30 0 40 -3 9 -5 -1 -4 -23z"/>
<path d="M1227 1544 c-10 -11 -8 -52 3 -59 6 -3 10 5 10 19 0 14 5 28 10 31 6
3 10 -5 10 -19 0 -14 5 -28 11 -31 7 -5 9 5 7 26 -2 25 -8 35 -23 37 -12 2
-24 0 -28 -4z"/>
<path d="M1297 1543 c-16 -15 -6 -54 16 -63 17 -7 18 -9 5 -9 -10 -1 -18 -6
-18 -12 0 -6 8 -9 18 -7 13 2 18 15 20 51 3 40 0 47 -16 47 -10 0 -22 -3 -25
-7z m28 -33 c-5 -8 -11 -8 -17 -2 -6 6 -7 16 -3 22 5 8 11 8 17 2 6 -6 7 -16
3 -22z"/>
<path d="M1380 1536 c0 -8 5 -18 10 -21 6 -3 10 3 10 14 0 12 -4 21 -10 21 -5
0 -10 -6 -10 -14z"/>
<path d="M1412 1525 c-14 -31 -15 -48 -3 -41 12 8 32 66 22 66 -4 0 -13 -11
-19 -25z"/>
<path d="M1450 1515 c0 -22 4 -34 10 -30 6 3 10 17 10 30 0 13 -4 27 -10 30
-6 4 -10 -8 -10 -30z"/>
<path d="M1480 1531 c0 -11 8 -22 18 -24 16 -4 16 -5 0 -6 -24 -1 -23 -21 1
-21 28 0 36 31 10 37 -21 6 -21 7 -4 20 18 12 18 13 -3 13 -15 0 -22 -6 -22
-19z"/>
<path d="M1540 1521 c0 -17 5 -33 10 -36 6 -4 10 8 10 29 0 20 -4 36 -10 36
-5 0 -10 -13 -10 -29z"/>
<path d="M1577 1544 c-13 -13 -7 -55 9 -61 24 -9 51 23 38 45 -12 19 -36 27
-47 16z m33 -29 c0 -8 -4 -15 -10 -15 -5 0 -10 7 -10 15 0 8 5 15 10 15 6 0
10 -7 10 -15z"/>
<path d="M1649 1548 c-7 -19 -6 -58 2 -58 5 0 10 10 10 23 1 20 2 20 6 2 9
-38 25 -42 21 -5 -2 24 -9 36 -20 38 -10 2 -19 2 -19 0z"/>
<path d="M2484 1494 c3 -9 6 -25 6 -35 0 -30 17 -14 22 21 4 25 1 30 -15 30
-13 0 -17 -5 -13 -16z"/>
<path d="M2530 1490 c0 -11 5 -20 11 -20 5 0 7 5 3 11 -3 6 0 15 7 20 11 7 10
9 -3 9 -11 0 -18 -8 -18 -20z"/>
<path d="M2569 1494 c-9 -11 -10 -20 -2 -32 12 -20 43 -29 43 -13 0 6 -7 11
-15 11 -8 0 -15 7 -15 15 0 8 7 15 15 15 8 0 15 5 15 10 0 16 -26 12 -41 -6z"/>
<path d="M2621 1475 c0 -31 2 -35 9 -20 7 18 9 18 15 3 5 -13 12 -15 30 -8 13
5 26 6 29 2 12 -11 49 -12 62 -1 9 8 14 8 14 1 0 -14 61 -13 78 1 10 8 16 7
22 -3 5 -8 14 -10 26 -5 18 8 18 8 2 12 -21 5 -24 39 -5 46 7 4 6 6 -5 6 -9 1
-18 -5 -21 -11 -3 -10 -7 -10 -20 1 -22 17 -47 7 -47 -19 0 -11 -5 -20 -11
-20 -7 0 -9 9 -5 23 5 22 3 24 -39 23 -34 0 -45 -4 -45 -15 -1 -14 -3 -13 -14
2 -18 24 -24 22 -29 -10 l-4 -28 -2 30 c-1 23 -3 27 -11 15 -9 -13 -11 -13
-20 0 -7 11 -10 5 -9 -25z m229 -1 c0 -14 -12 -19 -23 -8 -9 9 4 35 14 28 5
-3 9 -12 9 -20z m-90 1 c0 -8 -4 -15 -9 -15 -13 0 -22 16 -14 24 11 11 23 6
23 -9z"/>
<path d="M2927 1480 c7 -30 23 -51 23 -29 0 7 3 23 6 34 4 16 0 21 -15 21 -17
0 -19 -5 -14 -26z"/>
<path d="M7830 1465 c0 -41 2 -45 25 -45 23 0 25 4 25 45 0 41 -2 45 -25 45
-23 0 -25 -4 -25 -45z m34 14 c-3 -5 -10 -7 -15 -3 -5 3 -7 10 -3 15 3 5 10 7
15 3 5 -3 7 -10 3 -15z m6 -34 c0 -8 -4 -15 -9 -15 -13 0 -22 16 -14 24 11 11
23 6 23 -9z"/>
<path d="M8002 1468 c2 -23 8 -43 13 -45 6 -2 9 15 7 42 -2 25 -8 45 -14 45
-5 0 -8 -19 -6 -42z"/>
<path d="M8057 1484 c-23 -31 -18 -58 11 -62 20 -3 22 1 22 42 0 52 -7 56 -33
20z m10 -46 c-3 -7 -5 -2 -5 12 0 14 2 19 5 13 2 -7 2 -19 0 -25z"/>
<path d="M8321 1463 c1 -28 4 -38 6 -23 3 14 9 28 14 31 11 7 1 39 -12 39 -5
0 -8 -21 -8 -47z"/>
<path d="M8357 1473 c-4 -21 -2 -42 3 -47 7 -7 10 7 10 37 0 57 -5 60 -13 10z"/>
<path d="M8700 1465 c0 -25 5 -45 10 -45 6 0 10 5 10 11 0 8 4 8 14 0 11 -9
12 -6 8 14 -2 14 -8 25 -13 25 -5 0 -9 9 -9 20 0 11 -4 20 -10 20 -5 0 -10
-20 -10 -45z"/>
<path d="M8857 1497 c-3 -8 -2 -29 3 -48 8 -36 8 -36 14 34 1 6 6 15 11 19 6
5 3 8 -6 8 -9 0 -19 -6 -22 -13z"/>
<path d="M9040 1465 c0 -25 5 -45 10 -45 6 0 10 6 10 14 0 7 10 20 22 28 28
19 18 48 -17 48 -23 0 -25 -4 -25 -45z m40 20 c0 -8 -4 -15 -10 -15 -5 0 -10
7 -10 15 0 8 5 15 10 15 6 0 10 -7 10 -15z"/>
<path d="M8459 1496 c-3 -3 -3 -21 -1 -41 6 -47 27 -46 26 2 -1 34 -12 51 -25
39z"/>
<path d="M7898 1485 c-3 -6 -4 -22 -1 -38 4 -20 11 -27 29 -27 21 0 24 5 24
37 0 20 -3 33 -7 29 -4 -4 -8 -17 -8 -28 0 -36 -23 -32 -27 4 -2 18 -6 28 -10
23z"/>
<path d="M8110 1456 c0 -20 5 -36 10 -36 6 0 10 13 10 29 0 17 -4 33 -10 36
-6 4 -10 -8 -10 -29z"/>
<path d="M8174 1474 c3 -9 6 -24 6 -35 0 -10 4 -19 9 -19 8 0 9 19 2 63 0 4
-6 7 -12 7 -6 0 -8 -7 -5 -16z"/>
<path d="M8222 1478 c-19 -19 -14 -49 10 -56 21 -5 21 -6 2 -13 -18 -7 -17 -8
4 -8 20 -1 22 4 22 44 0 46 -13 58 -38 33z m28 -28 c0 -11 -4 -20 -10 -20 -5
0 -10 9 -10 20 0 11 5 20 10 20 6 0 10 -9 10 -20z"/>
<path d="M8400 1475 c-20 -24 -8 -50 25 -52 20 -1 23 0 8 4 -28 6 -30 23 -3
23 23 0 26 10 8 28 -16 16 -23 15 -38 -3z m30 -5 c0 -5 -5 -10 -11 -10 -5 0
-7 5 -4 10 3 6 8 10 11 10 2 0 4 -4 4 -10z"/>
<path d="M8564 1476 c-5 -14 -9 -15 -15 -4 -7 10 -9 8 -9 -7 -1 -20 -1 -20
-15 -1 -20 27 -28 15 -14 -20 7 -17 13 -24 16 -16 4 9 8 10 18 2 10 -8 15 -3
24 21 11 33 7 56 -5 25z"/>
<path d="M8594 1476 c-10 -27 1 -51 24 -54 21 -3 23 0 20 30 -3 35 -33 52 -44
24z m36 -27 c0 -24 -23 -21 -28 4 -2 10 3 17 12 17 10 0 16 -9 16 -21z"/>
<path d="M8663 1483 c-15 -6 -18 -63 -3 -63 6 0 10 10 10 23 0 13 5 28 12 35
12 12 3 15 -19 5z"/>
<path d="M8763 1474 c-4 -10 1 -20 13 -27 17 -10 17 -11 -1 -18 -19 -7 -19 -8
1 -8 30 -1 36 10 17 31 -15 17 -15 20 -3 28 13 8 12 10 -3 10 -10 0 -20 -7
-24 -16z"/>
<path d="M8904 1476 c-9 -23 0 -51 17 -54 21 -4 32 24 19 49 -13 23 -28 25
-36 5z m26 -28 c0 -16 -3 -19 -11 -11 -6 6 -8 16 -5 22 11 17 16 13 16 -11z"/>
<path d="M8978 1482 c-19 -4 -26 -62 -8 -62 6 0 10 11 10 24 0 13 6 26 13 29
17 6 5 14 -15 9z"/>
<path d="M9111 1468 c-11 -31 -3 -48 23 -47 16 1 17 2 4 6 -22 6 -24 23 -2 23
9 0 14 7 12 17 -5 26 -27 27 -37 1z"/>
<path d="M9174 1476 c-10 -25 0 -51 21 -54 18 -2 19 -2 3 8 -22 13 -24 40 -3
40 8 0 15 5 15 10 0 15 -30 12 -36 -4z"/>
<path d="M9239 1488 c-6 -22 -5 -88 2 -88 5 0 9 4 9 9 0 5 9 11 21 14 30 8 23
61 -8 65 -13 2 -23 2 -24 0z m36 -48 c-3 -6 -10 -10 -16 -10 -10 0 -12 33 -2
44 9 9 26 -22 18 -34z"/>
<path d="M9342 1473 c-14 -25 3 -53 31 -52 21 1 20 2 -3 9 l-25 8 23 7 c14 5
22 14 20 24 -5 23 -35 25 -46 4z m28 -3 c0 -5 -5 -10 -11 -10 -5 0 -7 5 -4 10
3 6 8 10 11 10 2 0 4 -4 4 -10z"/>
<path d="M4860 1476 c0 -2 8 -10 18 -17 15 -13 16 -12 3 4 -13 16 -21 21 -21
13z"/>
<path d="M7972 1450 c0 -19 2 -27 5 -17 2 9 2 25 0 35 -3 9 -5 1 -5 -18z"/>
<path d="M8152 1450 c0 -19 2 -27 5 -17 2 9 2 25 0 35 -3 9 -5 1 -5 -18z"/>
<path d="M2530 1450 c0 -5 7 -10 16 -10 8 0 12 5 9 10 -3 6 -10 10 -16 10 -5
0 -9 -4 -9 -10z"/>
<path d="M6437 1408 c-8 -28 -1 -36 8 -9 3 11 14 22 23 24 13 4 12 5 -4 6 -14
1 -24 -6 -27 -21z"/>
<path d="M6925 1400 c-3 -6 1 -7 9 -4 18 7 21 14 7 14 -6 0 -13 -4 -16 -10z"/>
<path d="M6497 1394 c-31 -32 29 -50 70 -22 l28 19 -42 -5 c-24 -3 -43 -1 -45
5 -2 6 -7 7 -11 3z"/>
<path d="M6642 1366 c-17 -46 -15 -52 8 -23 21 27 25 43 12 51 -5 3 -14 -10
-20 -28z"/>
<path d="M6746 1392 c-4 -7 -11 -10 -16 -7 -10 6 -26 -14 -33 -42 -7 -29 -4
-29 27 2 20 20 30 24 44 16 18 -10 62 12 49 25 -4 4 -13 1 -22 -6 -11 -9 -15
-9 -15 -1 0 7 -4 10 -9 7 -5 -4 -11 -1 -13 6 -3 9 -6 9 -12 0z"/>
<path d="M6854 1385 c-3 -8 -4 -20 -1 -27 4 -8 6 -6 6 5 1 9 8 17 17 17 8 0
12 5 9 10 -9 15 -25 12 -31 -5z"/>
<path d="M6952 1388 c-16 -16 -15 -28 3 -28 8 0 15 9 15 20 0 23 -2 24 -18 8z"/>
<path d="M7019 1392 c-1 -4 -1 -10 0 -14 0 -5 -4 -8 -10 -8 -5 0 -8 -4 -4 -10
7 -12 32 -3 39 15 2 7 -2 16 -10 19 -8 3 -15 2 -15 -2z"/>
<path d="M7104 1383 c3 -8 6 -17 6 -19 0 -10 18 -3 23 10 3 8 -2 16 -14 19
-15 4 -19 2 -15 -10z"/>
<path d="M6457 1375 c-4 -8 -2 -17 3 -20 6 -4 10 -4 10 -1 0 2 3 11 6 20 3 9
2 16 -4 16 -5 0 -12 -7 -15 -15z"/>
<path d="M6616 1374 c-4 -10 -1 -14 6 -12 15 5 23 28 10 28 -5 0 -13 -7 -16
-16z"/>
<path d="M6896 1375 c-3 -8 -1 -15 4 -15 6 0 10 7 10 15 0 8 -2 15 -4 15 -2 0
-6 -7 -10 -15z"/>
<path d="M7060 1375 c-7 -8 -8 -15 -2 -15 5 0 15 7 22 15 7 8 8 15 2 15 -5 0
-15 -7 -22 -15z"/>
<path d="M6420 1359 c0 -5 5 -7 10 -4 6 3 10 8 10 11 0 2 -4 4 -10 4 -5 0 -10
-5 -10 -11z"/>
<path d="M638 943 c-33 -8 -14 -94 20 -93 33 1 51 59 27 84 -17 17 -18 17 -47
9z"/>
<path d="M4743 1030 c-21 -8 -23 -16 -23 -73 0 -72 16 -97 64 -97 41 0 65 35
66 93 0 73 -42 103 -107 77z"/>
<path d="M1487 893 c-8 -8 -9 -53 -1 -53 18 0 44 24 44 40 0 20 -29 28 -43 13z"/>
<path d="M1897 963 c-15 -14 -6 -23 23 -23 20 0 30 5 30 15 0 15 -40 21 -53 8z"/>
<path d="M2657 963 c-15 -15 -5 -23 28 -23 26 0 33 3 29 15 -6 15 -45 21 -57
8z"/>
<path d="M3784 886 c-18 -14 -18 -16 -2 -32 17 -17 18 -17 38 1 40 36 9 64
-36 31z"/>
<path d="M3981 951 c-16 -29 -13 -56 7 -81 16 -20 21 -21 41 -11 19 10 22 19
19 59 -3 43 -5 47 -30 50 -18 2 -30 -3 -37 -17z"/>
<path d="M4204 886 c-18 -14 -18 -16 -2 -32 14 -14 20 -15 32 -4 19 15 21 50
3 50 -7 0 -22 -6 -33 -14z"/>
<path d="M5006 943 c-14 -65 30 -120 61 -77 16 22 17 76 1 92 -23 23 -56 14
-62 -15z"/>
<path d="M5220 944 c-19 -48 15 -106 53 -91 21 8 32 53 21 86 -14 39 -60 42
-74 5z"/>
<path d="M6007 963 c-15 -14 -6 -23 23 -23 20 0 30 5 30 15 0 15 -40 21 -53 8z"/>
<path d="M6643 893 c-19 -7 -16 -40 3 -47 21 -8 44 11 44 35 0 19 -20 24 -47
12z"/>
<path d="M7502 958 c-17 -17 -15 -83 3 -98 41 -34 89 21 69 79 -10 29 -51 40
-72 19z"/>
<path d="M7732 958 c-7 -7 -12 -28 -12 -48 0 -39 14 -60 41 -60 19 0 29 20 29
60 0 56 -27 79 -58 48z"/>
<path d="M7952 958 c-16 -16 -15 -70 2 -94 19 -24 46 -10 59 30 18 53 -26 99
-61 64z"/>
<path d="M8472 958 c-19 -19 -14 -73 7 -92 41 -37 79 25 55 88 -7 19 -45 21
-62 4z"/>
<path d="M9084 886 c-18 -14 -18 -15 -1 -33 18 -17 19 -17 33 1 29 40 8 61
-32 32z"/>
<path d="M3910 533 c-29 -26 -34 -37 -38 -90 -5 -71 13 -115 58 -138 37 -19
70 -12 102 22 20 22 23 34 23 104 -1 91 -16 115 -77 125 -29 5 -41 1 -68 -23z"/>
<path d="M5061 546 c-36 -20 -50 -55 -51 -123 0 -55 3 -67 29 -95 40 -45 92
-45 132 0 25 28 29 40 29 92 0 71 -15 107 -51 126 -34 17 -57 17 -88 0z"/>
</g>
</svg>
